<?xml version="1.0" encoding="UTF-8" standalone="no"?>
<svg
   xmlns:dc="http://purl.org/dc/elements/1.1/"
   xmlns:cc="http://creativecommons.org/ns#"
   xmlns:rdf="http://www.w3.org/1999/02/22-rdf-syntax-ns#"
   xmlns:svg="http://www.w3.org/2000/svg"
   xmlns="http://www.w3.org/2000/svg"
   xmlns:sodipodi="http://sodipodi.sourceforge.net/DTD/sodipodi-0.dtd"
   xmlns:inkscape="http://www.inkscape.org/namespaces/inkscape"
   width="785.47333mm"
   height="875.56946mm"
   viewBox="0 0 785.47332 875.56946"
   version="1.1"
   id="svg8"
   inkscape:version="1.0.1 (3bc2e813f5, 2020-09-07)"
   sodipodi:docname="Main blur blue.svg">
  <defs
     id="defs2">
    <filter
       inkscape:collect="always"
       style="color-interpolation-filters:sRGB"
       id="filter938"
       x="-0.098039962"
       width="1.1960799"
       y="-0.10743842"
       height="1.2148768">
      <feGaussianBlur
         inkscape:collect="always"
         stdDeviation="9.0189311"
         id="feGaussianBlur940" />
    </filter>
  </defs>
  <sodipodi:namedview
     id="base"
     pagecolor="#ffffff"
     bordercolor="#666666"
     borderopacity="1.0"
     inkscape:pageopacity="0.0"
     inkscape:pageshadow="2"
     inkscape:zoom="0.35"
     inkscape:cx="463.34106"
     inkscape:cy="2280.2927"
     inkscape:document-units="px"
     inkscape:current-layer="layer1"
     showgrid="false"
     inkscape:window-width="1901"
     inkscape:window-height="1041"
     inkscape:window-x="-285"
     inkscape:window-y="0"
     inkscape:window-maximized="0"
     inkscape:document-rotation="0" />
  <metadata
     id="metadata5">
    <rdf:RDF>
      <cc:Work
         rdf:about="">
        <dc:format>image/svg+xml</dc:format>
        <dc:type
           rdf:resource="http://purl.org/dc/dcmitype/StillImage" />
        <dc:title></dc:title>
      </cc:Work>
    </rdf:RDF>
  </metadata>
  <g
     inkscape:label="Layer 1"
     inkscape:groupmode="layer"
     id="layer1"
     transform="translate(139.60125,455.16079)">
    <path
       style="fill:#55ddff;stroke-width:0.267961;filter:url(#filter938)"
       d="m 296.49765,342.73373 c -0.131,-0.2115 -0.549,-0.2618 -1.224,-0.1475 -0.748,0.1266 -1.368,0.023 -2.284,-0.383 -0.972,-0.4297 -1.812,-0.5565 -3.684,-0.5565 -1.334,0 -2.825,-0.144 -3.31,-0.3199 -0.742,-0.2681 -1.043,-0.2449 -1.856,0.1427 -0.786,0.3747 -1.359,0.4278 -3.019,0.2791 -1.128,-0.1017 -2.291,-0.336 -2.585,-0.5221 -0.512,-0.3228 -4.53,-0.8502 -5.092,-0.6683 -0.74,0.2393 -5.965,-0.01 -7.307,-0.344 -2.76,-0.6934 -4.081,-0.9792 -4.529,-0.9792 -0.241,0 -0.858,-0.3189 -1.369,-0.7086 -0.601,-0.4581 -1.36,-0.7447 -2.148,-0.8103 -1.033,-0.085 -1.332,0.01 -1.965,0.6145 -0.662,0.6342 -0.946,0.7126 -2.485,0.6864 -0.955,-0.017 -2.136,-0.203 -2.623,-0.4153 -1.147,-0.4988 -5.156,-4.3221 -4.925,-4.6964 0.29,-0.4681 -0.334,-1.3312 -1.488,-2.0593 -0.865,-0.5472 -1.46,-0.6923 -3,-0.733 -1.42,-0.038 -2.042,-0.1727 -2.391,-0.5196 -0.667,-0.6645 -1.184,-0.5869 -2.376,0.3574 -1.264,1.0009 -1.344,1.7927 -0.373,3.6207 0.375,0.7058 0.67,1.7068 0.67,2.276 0,0.5589 0.121,1.0907 0.268,1.1818 0.483,0.2981 0.281,1.3366 -0.333,1.7202 -0.947,0.5912 -3.12,0.6688 -3.713,0.1324 -0.465,-0.4219 -0.6,-0.4114 -2.177,0.1705 -0.926,0.3413 -1.949,0.7902 -2.276,0.9979 -0.779,0.4967 -4.018,0.5409 -4.895,0.067 -0.861,-0.4665 -2.491,-0.5396 -5.542,-0.2491 -2.041,0.1945 -2.631,0.1604 -3.484,-0.2016 -0.564,-0.2395 -1.713,-0.4474 -2.553,-0.4617 -1.331,-0.023 -1.627,0.071 -2.323,0.7373 -0.777,0.7451 -0.844,0.7585 -2.762,0.5612 -2.689,-0.2767 -6.051,-0.2453 -8.931,0.082 -1.503,0.1716 -2.586,0.1812 -2.878,0.025 -0.256,-0.1374 -1.462,-0.3232 -2.679,-0.4131 -1.578,-0.1165 -2.521,-0.3377 -3.286,-0.77 -1.665,-0.9425 -3.158,-1.0876 -4.249,-0.4132 -1.081,0.668 -2.239,0.7171 -3.076,0.1308 -0.373,-0.2619 -1.411,-0.4806 -2.672,-0.5629 -1.886,-0.1231 -2.216,-0.064 -3.903,0.7005 -1.707,0.7731 -2.073,0.8369 -4.957,0.861 -2.551,0.021 -3.429,-0.08 -4.847,-0.5623 -1.69,-0.5741 -1.778,-0.5775 -3.568,-0.1421 -1.01,0.2452 -2.016,0.3772 -2.234,0.2932 -0.219,-0.083 -1.207,-0.028 -2.194,0.124 -3.156,0.487 -5.36,0.5796 -6.313,0.2651 -0.776,-0.2562 -1.073,-0.2209 -1.951,0.2332 l -1.033,0.5356 -2.167,-0.7704 c -2.855,-1.0142 -7.771,-1.3923 -8.856,-0.6809 -0.585,0.3832 -1.538,0.4526 -6.488,0.4728 -8.06599,0.033 -12.49799,-0.1871 -14.22399,-0.7054 -0.8,-0.2403 -1.767,-0.437 -2.147,-0.437 -0.413,0 -0.833,-0.2279 -1.044,-0.5678 -0.315,-0.5022 -0.516,-0.5477 -1.74,-0.3931 -3.217,0.4061 -4.141,0.4214 -5.538,0.092 l -1.474,-0.3475 -0.172,-2.2724 c -0.279,-3.6906 -0.471,-4.0603 -2.617,-5.0109 -1.255,-0.5556 -1.724,-0.6221 -3.484005,-0.4952 -4.417,0.3189 -6.343,0.4265 -6.857,0.3829 -1.428,-0.1216 -2.89801,0 -5.15501,0.4403 -2.901,0.5605 -3.081,0.4853 -3.683,-1.5414 -0.45,-1.5158 -0.83,-2.0772 -1.402,-2.0772 -0.383,0 -0.777,0.2683 -3.052,2.0768 -1.266,1.0066 -2.275,1.1102 -3.261,0.3349 -0.974,-0.7663 -1.682,-0.6709 -3.526,0.475 -0.894,0.556 -1.988,1.1961 -2.43,1.4228 l -0.803,0.4119 0.08,2.7049 c 0.06,2.0092 0,2.763 -0.266,2.9304 -0.38,0.2431 -3.749,0.6488 -5.363,0.6459 -0.568,0 -1.687,0.3437 -2.619,0.8055 -2.238,1.1109 -4.509,1.3132 -6.474,0.5774 -0.815,-0.3048 -2.573,-0.6334 -3.978,-0.7431 -1.599,-0.1252 -2.815,-0.3688 -3.337,-0.6686 -0.995,-0.5714 -4.49,-1.0125 -6.788,-0.857 -1.574,0.1067 -1.738,0.061 -2.631,-0.7231 -1.432,-1.2574 -2.816,-2.0549 -3.863,-2.227 -0.514,-0.084 -1.123,-0.2279 -1.351,-0.318 -0.284,-0.1127 -0.827,0.3385 -1.741,1.4457 -1.542,1.867 -2.488,2.3858 -3.504,1.9224 -1.336,-0.6088 -2.939,-0.8331 -3.882,-0.5431 -0.82,0.2524 -1.74,0.4177 -5.217,0.9401 -0.819,0.1227 -1.366,0.023 -2.193,-0.3979 -0.606,-0.3089 -1.175,-0.6839 -1.269,-0.8335 -0.09,-0.1494 -0.513,-0.2717 -0.939,-0.2717 -0.875,0 -1.493,-0.7256 -2.849,-3.3401 -0.8589996,-1.6608 -1.5089996,-2.1011 -2.0629996,-1.3982 -0.576,0.7331 -4.022,2.8627 -4.632,2.8627 -0.426,0 -0.853,0.3883 -1.468,1.3397 -1.066,1.6427 -2.01900001,1.8138 -3.12,0.5594 -0.681,-0.7759 -1.411,-0.8425 -1.411,-0.1287 0,0.2052 -0.206,0.3732 -0.459,0.3732 -0.253,0 -1.519,0.6112 -2.813,1.358 -1.507,0.87 -2.531,1.3016 -2.848,1.2008 -0.275,-0.086 -0.848,0.025 -1.276,0.2479 -0.4270004,0.223 -0.9730004,0.4062 -1.2130004,0.4072 -0.239,0 -0.586,0.1825 -0.769,0.4035 -0.517,0.6222 -2.267,0.5205 -2.719,-0.1578 -0.32,-0.4835 -0.682,-0.5698 -2.645,-0.6323 -1.25,-0.04 -2.595,-0.2252 -2.989,-0.4116 -0.547,-0.2594 -0.92,-0.2683 -1.581,-0.038 -1.233,0.4298 -3.992,0.3724 -4.902,-0.1022 -1.031,-0.5379 -1.441,-0.5042 -1.644,0.136 -0.245,0.7729 -0.922,1.0461 -2.77,1.1191 -1.367,0.054 -1.734,-0.031 -2.261,-0.5275 -0.802,-0.7534 -0.861,-0.7491 -2.73,0.2073 -2.184,1.1165 -3.114,1.2555 -3.743,0.5594 -0.278,-0.3052 -0.649,-0.5548 -0.827,-0.5548 -0.178,0 -0.624,-0.2354 -0.99,-0.523 -0.581,-0.4574 -1.233,-0.5402 -5.195,-0.6592 -2.49,-0.075 -4.951,-0.1566 -5.466,-0.1818 -0.516,-0.025 -2.626,-0.051 -4.69,-0.058 -2.063,-0.01 -5.138,-0.02 -6.833,-0.029 -1.695,-0.01 -3.885,0.088 -4.865,0.2157 -0.981,0.1278 -2.218,0.1513 -2.748,0.052 l -0.962,-0.1805 v -16.6015 c 0,-9.6498 0.102,-16.6015 0.241,-16.6015 0.532,0 1.086,-7.8328 0.733,-10.3883 -0.135,-0.9848 -0.123,-3.0351 0.03,-4.9573 0.213,-2.6882 0.191,-3.4224 -0.124,-4.0816 -0.292,-0.613 -0.363,-1.7267 -0.295,-4.6894 0.07,-3.361 0.02,-3.9748 -0.382,-4.5479 -0.257,-0.3645 -0.469,-0.7982 -0.469,-0.9638 0,-0.1657 -0.251,-0.5912 -0.559,-0.9453 -0.688,-0.7914 -0.589,-1.6278 0.452,-3.8595 0.413,-0.8842 0.79,-1.6772 0.837,-1.7621 0.05,-0.084 -0.231,-0.4997 -0.622,-0.9214 -0.665,-0.7163 -0.701,-0.8831 -0.548,-2.5252 0.145,-1.5611 0.259,-1.8372 1.023,-2.4633 0.857,-0.7015 0.858,-0.7092 0.386,-1.4289 -0.573,-0.8753 -0.712,-2.5051 -0.387,-4.5719 0.171,-1.0981 0.144,-1.8142 -0.09,-2.507 -0.189,-0.547 -0.299,-1.8063 -0.251,-2.8889 0.08,-1.7222 0.03,-1.9501 -0.476,-2.22 -0.438,-0.2348 -0.561,-0.5571 -0.561,-1.4646 0,-0.6671 0.158,-1.2956 0.372,-1.473 0.366,-0.3048 0.452,-0.5822 0.902,-2.9717 0.126,-0.6633 0.722,-2.05 1.326,-3.0816 0.605,-1.0318 1.174,-2.1359 1.268,-2.454 0.09,-0.3179 0.347,-0.6457 0.561,-0.7284 0.563,-0.2151 0.485,-0.9057 -0.121,-1.0978 -0.591,-0.1875 -1.094,-1.4025 -0.854,-2.0639 0.09,-0.2469 0.719,-0.873 1.398,-1.3911 0.785,-0.5983 1.292,-1.2171 1.388,-1.6948 0.08,-0.4139 0.831,-1.702 1.665,-2.8623 1.054,-1.4692 1.429,-2.1948 1.233,-2.3902 -0.155,-0.1542 -1.277,-0.8355 -2.495,-1.5137 -2.066,-1.1499 -2.227,-1.3025 -2.383,-2.2599 -0.09,-0.5649 -0.288,-1.1049 -0.436,-1.2 -0.148,-0.096 -0.542,-0.7098 -0.874,-1.3656 -0.546,-1.0774 -0.574,-1.3104 -0.284,-2.4117 0.304,-1.1585 0.666,-3.0437 0.979,-5.1045 0.08,-0.5159 0,-1.4805 -0.165,-2.1437 -0.652,-2.54321 -0.651,-2.54741 0.415,-3.72891 0.552,-0.6096 1.355,-1.3164 1.787,-1.5704 0.739,-0.4337 0.776,-0.5356 0.607,-1.6677 -0.26,-1.7603 -0.75,-2.7631 -2.02,-4.1425 l -1.132,-1.2272 -0.04,-3.5866 c -0.04,-3.3258 -0.102,-3.6876 -0.766,-4.9768 -0.515,-0.9945 -0.722,-1.7923 -0.722,-2.8028 0,-1.8114 -0.405,-3.9452 -0.981,-5.1598 -0.384,-0.8083 -0.41,-1.2089 -0.171,-2.6061 0.156,-0.9083 0.587,-2.3083 0.958,-3.1117 0.6,-1.2981 0.907,-2.9868 1.148,-6.3156 0.149,-2.0601 0.153,-2.0623 3.029,-1.8709 1.42,0.095 2.711,0.079 2.865,-0.035 0.156,-0.1135 0.685,-0.93 1.176,-1.8143 0.492,-0.8843 1.118,-1.8953 1.393,-2.2468 0.645,-0.8261 0.633,-1.6644 -0.04,-2.5156 -0.806,-1.0257 -0.689,-2.2271 0.335,-3.4306 1.736,-2.0397 2.115,-2.6513 1.956,-3.1527 -0.163,-0.5108 -1.201,-1.1145 -1.915,-1.1145 -0.222,0 -0.759,-0.1839 -1.193,-0.4088 -0.672,-0.347 -0.791,-0.5673 -0.791,-1.4563 0,-0.5762 0.121,-1.363 0.267,-1.7486 0.303,-0.7983 0.594,-2.8622 0.556,-3.9563 -0.06,-1.7434 0.05,-4.4105 0.332,-8.183 0.125,-1.6625 0.05,-2.1624 -0.476,-3.3603 -0.342,-0.7739 -0.785,-1.532 -0.986,-1.6845 -0.688,-0.5249 -2.572,-0.9071 -4.475,-0.9071 -1.863,0 -1.911,-0.015 -2.061,-0.7369 -0.08,-0.4053 -0.268,-1.2409 -0.406,-1.8569 -0.18,-0.8005 -0.14,-1.7071 0.142,-3.1792 0.402,-2.103 0.321,-2.6322 -0.515,-3.3256 -0.229,-0.1901 -0.416,-0.7451 -0.416,-1.2333 0,-0.4882 -0.139,-1.2269 -0.307,-1.6419 -0.169,-0.4149 -0.347,-2.3219 -0.397,-4.2378 -0.05,-1.9161 -0.192,-3.9861 -0.322,-4.6005 -0.209,-0.9899 -0.18,-5.2138 0.06,-9.4675 0.05,-0.8106 0.271,-1.898096 0.501,-2.416296 0.591,-1.3351 0.203,-5.8002 -0.758,-8.7008 -0.686,-2.0723 -0.695,-2.1673 -0.25,-2.9926 0.378,-0.7013 0.415,-1.1095 0.21,-2.3032 -0.141,-0.8211 -0.158,-2.2551 -0.03,-3.3045 0.12,-1.0194 0.294,-2.8785 0.39,-4.1313 0.09,-1.2527 0.275,-2.4806 0.405,-2.729 0.416,-0.8046 0.247,-2.9001 -0.344,-4.2722 -0.521,-1.2116 -0.559,-1.638 -0.406,-4.471 0.146,-2.678 0.292,-3.4209 1.011,-5.1277 0.732,-1.7383 0.82,-2.1971 0.677,-3.5537 -0.09,-0.8568 -0.408,-2.0385 -0.707,-2.6258 -0.58,-1.1371 -0.52,-2.0201 0.213,-3.1529 0.507,-0.7811 0.265,-2.7422 -0.492,-4.0284 -0.345,-0.5819 -0.656,-1.8345 -0.839,-3.3693 -0.289,-2.4373 -0.298,-3.3686 -0.09,-9.9459 0.06,-1.9157 -0.02,-4.0587 -0.165,-4.7617 -0.261,-1.2223 -0.237,-1.3196 0.555,-2.2201 0.701,-0.8007 0.826,-1.1558 0.826,-2.3734 0,-0.7873 -0.182,-1.8689 -0.407,-2.4036 -0.326,-0.780697 -0.37,-1.628897 -0.227,-4.308897 0.149,-2.797301 0.102,-3.581301 -0.298,-4.849501 -0.52,-1.6529 -0.415,-4.0666002 0.223,-5.0696002 0.673,-1.062 1.33,-3.6446 1.009,-3.9661 -0.455,-0.4542 -0.372,-3.1863 0.116,-3.8845 0.417,-0.5944 1.302,-0.8006 1.57,-0.3659 0.08,0.1264 0.811,0.2987 1.628,0.383 0.817,0.083 1.891,0.4032 2.384,0.7083 1.368,0.846 2.099,0.7207 3.214,-0.5519 1.123,-1.2811 1.182,-1.6232 0.401,-2.3502 -0.399,-0.372 -0.522,-0.7192 -0.41,-1.1642 0.51,-2.0298 -1.092,-5.5614 -2.522,-5.5614 -0.798,0 -1.57,-0.6475 -3.804,-3.1969998 -0.726,-0.8291 -1.402,-1.9242 -1.569,-2.5455 -0.425,-1.5736 -0.126,-3.505 0.691,-4.476 0.575,-0.6858 0.655,-0.979 0.511,-1.9272 -0.09,-0.6151 -0.404,-1.3781 -0.692,-1.6954 -0.288,-0.3175 -0.642,-1.041 -0.786,-1.6078 -1.328,-5.2186 -1.433,-5.9122 -1.442,-9.6056 0,-3.8806 -0.286,-6.7467 -0.698,-7.2658 -0.131,-0.1643 -0.348,-1.1775 -0.484,-2.2514 -0.209,-1.6767 -0.172,-2.138 0.273,-3.2635 0.448,-1.1389 0.468,-1.4061 0.157,-2.0361 -0.207,-0.4216 -0.378,-1.7898 -0.408,-3.2705 -0.03,-1.6997 -0.196,-2.8546 -0.487,-3.4752 -0.242,-0.5152 -0.416,-1.4925 -0.392,-2.1923 0.02,-0.6944 -0.08,-1.3385 -0.227,-1.4312 -0.488,-0.301 0,-3.144701 0.643,-3.659701 l 0.559,-0.4565 -0.63,-0.5908 c -0.504,-0.4728 -0.594,-0.7579 -0.454,-1.4265 0.68,-3.2328 0.944,-5.6124 0.658,-5.9567 -0.196,-0.235 -0.239,-0.8092 -0.122,-1.5924 0.111,-0.7452 0.07,-1.3592 -0.102,-1.5674 -0.301,-0.3631 -0.217,-5.8369 0.102,-6.6237 0.102,-0.2462 0,-0.6151 -0.242,-0.8517 -0.538,-0.5381 -0.532,-1.3656 0,-1.8167 0.321,-0.2665 0.386,-0.6185 0.258,-1.4148 -0.146,-0.9172 -0.04,-1.2523 0.779,-2.4874 0.521,-0.7851 0.947,-1.6518 0.947,-1.9261 0,-0.72 0.855,-1.3854 1.779,-1.3854 1.085,0 1.555,-0.4508 1.956,-1.8757 0.188,-0.6633 0.748,-1.7071 1.248,-2.3197 1.062,-1.3036 1.586,-3.3216 1.343,-5.1645 -0.274,-2.057705 0.17,-3.670105 1.358,-4.935705 1.902,-2.0265 2.083,-2.3327 2.227,-3.7471 0.13,-1.3025 0.186,-1.3899 0.942,-1.4753 1.088,-0.1227 1.515,-0.5324 1.42,-1.3601 -0.07,-0.5837 -0.219,-0.6952 -0.957,-0.7083 -1.273,-0.022 -1.58,-0.6608 -1.608,-3.334 l -0.02,-2.2778 0.951,-0.8311 c 1.116,-0.9746 1.259,-1.5576 1.176,-4.7961 -0.05,-2.0267 -0.151,-2.5077 -0.624,-3.0144 -0.309,-0.3318 -0.795,-0.603 -1.08,-0.603 -0.99,0 -2.186,-1.3124 -2.413,-2.6487 -0.477,-2.8028 -0.503,-3.1884 -0.217,-3.3649 0.448,-0.2766 0.352,-1.2688 -0.243,-2.4979 -0.295,-0.6101 -0.536,-1.2903 -0.536,-1.5115 0,-0.2211 0.489,-1.3317 1.087,-2.4679 0.955,-1.8103 1.065,-2.2016 0.898,-3.1614 -0.104,-0.6024 -0.222,-1.5776 -0.263,-2.1671 -0.138,-2.0574 -0.613,-4.2049 -1.032,-4.6675 -0.232,-0.2563 -0.421,-0.8392 -0.421,-1.2954 0,-0.4561 -0.14,-1.4316 -0.309,-2.1676 -0.263,-1.1385 -0.242,-1.4811 0.145,-2.295 0.33,-0.6973 0.381,-1.0932 0.184,-1.4599 -0.259,-0.4841 -0.149,-1.0598 0.554,-2.9349 0.364,-0.9708 -0.185,-1.7508 -1.102,-1.5673 -1.144,0.2288 -1.583,-0.2878 -1.673,-1.9672 -0.07,-1.412 -0.119,-1.4924 -1.083,-1.9448 -0.551,-0.2594 -1.005,-0.6516 -1.005,-0.8715 0,-0.2199 -0.114,-0.3999 -0.256,-0.3999 -0.141,0 -0.398,-0.4715 -0.571,-1.0479 -0.276,-0.9197 -0.249,-1.1411 0.215,-1.8087 0.291,-0.4185 0.858,-1.4424 1.26,-2.2755 0.63,-1.3055 0.683,-1.591 0.384,-2.0692 -0.309,-0.4926 -0.251,-0.6543 0.517,-1.4457 1.063,-1.0961 1.086,-1.5736 0.106,-2.008 -0.94,-0.416 -2.19,-2.2747 -2.19,-3.2564 0,-0.9141 0.814,-1.665 2.467,-2.273 0.693,-0.2551 1.328,-0.6786 1.411,-0.9413 0.08,-0.2626 0.639,-0.6382 1.234,-0.8348 1.49,-0.4914 1.721,-1.0294 1.287,-2.9881 -0.195,-0.8757 -0.507,-1.7188 -0.693,-1.8736 -0.187,-0.1547 -1.083,-0.3251 -1.993,-0.3783 -1.327,-0.077 -1.721,-0.01 -1.99,0.36 -0.29,0.3971 -0.454,0.4137 -1.249,0.1265 -1.336,-0.483 -1.789,-0.4109 -2.131,0.3393 -0.197,0.4335 -0.524,0.6699 -0.924,0.6699 -1.305,0 -1.9,-2.9657 -1.009,-5.0329 0.235,-0.548 0.471,-1.5993 0.521,-2.3361 0.411,-5.9267 0.446,-5.4356 -0.427,-6.08 -0.926,-0.6849 -0.994,-1.3632 -0.382,-3.7278 0.361,-1.3917 0.362,-1.6494 0.01,-2.1821 -0.445,-0.6837 -0.517,-3.2426 -0.31,-11.0549 0.176,-6.6385 0.163,-7.8798 -0.108,-9.0797 -0.138,-0.622 -0.131,-1.3092 0.02,-1.7074 0.171,-0.4517 0.154,-0.7842 -0.05,-1.0321 -0.185,-0.2215 -0.235,-0.7627 -0.13,-1.3741 0.09,-0.5547 0.209,-1.568 0.253,-2.2519 0.04,-0.6839 0.233,-1.6119 0.419,-2.062 0.282,-0.6801 0.268,-1.0366 -0.07,-2.1062 -0.332,-1.033 -0.389,-2.2141 -0.284,-5.9769 0.392,-14.183 0.552,-16.1551 1.466,-17.9783 l 0.752,-1.4985 -0.587,-0.5846 c -0.501,-0.5011 -0.606,-0.9756 -0.728,-3.3247 -0.08,-1.507 -0.03,-3.0868 0.106,-3.5106 0.189,-0.5894 0.136,-0.9604 -0.23,-1.5785 -0.326,-0.551 -0.471,-1.3214 -0.454,-2.4228 0,-0.8881 -0.08,-1.8141 -0.214,-2.0578 -0.157,-0.2944 0,-1.1921 0.464,-2.6805 0.652,-2.0896 0.678,-2.3595 0.383,-4.079 -0.278,-1.6189 -0.26,-1.9449 0.145,-2.7008 0.301,-0.5624 0.477,-1.5549 0.506,-2.8694 0.03,-1.1054 0.191,-2.4963 0.369,-3.0912 0.244,-0.8114 0.256,-1.765 0.05,-3.8192 -0.171,-1.7199 -0.181,-3.0604 -0.02,-3.606 0.138,-0.4776 0.249,-1.641 0.249,-2.5852 0,-0.9442 0.192,-2.6615 0.426,-3.8161 0.482,-2.3794 0.329,-3.342 -1.227,-7.7325 -0.657,-1.854 -0.806,-2.698 -0.803,-4.5555 0,-1.2538 0.166,-2.8899 0.364,-3.6355 0.324,-1.2216 0.307,-1.5529 -0.185,-3.3495 -0.554,-2.0196 -0.64,-4.0189 -0.506,-11.8233 l 0.05,-2.86245 0.741,-0.11206 0.74,-0.11186 -0.696,-0.0407 -0.694,-0.0407 -0.181,-6.52101 c -0.102,-3.58651 -0.105,-7.37001 0,-8.40769 0.122,-1.32572 0.04,-2.57213 -0.283,-4.19175 -0.618,-3.12094 -0.528,-13.82196 0.118,-13.85852 0.276,-0.0152 0.297,-0.0648 0.07,-0.1578 -0.387,-0.15627 -0.458,-1.16236 -0.08,-1.16236 0.138,0 0.289,-0.45219 0.334,-1.00485 l 0.08,-1.00488 2.278,-0.0608 c 1.252,-0.0334 3.604,-0.13855 5.225,-0.23406 2.975,-0.1752 5.06,0.0405 7.843,0.81266 1.229,0.34139 1.573,0.34231 2.678,0.0102 0.699,-0.21165 2.321,-0.38626 3.608,-0.38788 2.012,0 2.779,0.14422 5.493,1.04963 4.188,1.39741 4.684,1.46628 7.04,0.97479 1.106,-0.23051 2.795,-0.41918 3.753,-0.41929 0.959,-9e-5 2.152,-0.11718 2.65,-0.26018 0.601,-0.17227 1.858,-0.15951 3.727,0.0374 2.184,0.2304 3.028,0.22301 3.736,-0.0324 0.503,-0.1817 1.904,-0.34942 3.115,-0.37261 1.578,-0.0303 2.402,-0.17318 2.908,-0.50396 0.62,-0.40712 0.952,-0.42708 2.8,-0.16902 1.96,0.27335 2.237,0.24732 4.219,-0.39468 1.424,-0.46172 2.267,-0.60898 2.567,-0.44835 0.246,0.13145 1.1690004,0.22878 2.0510004,0.21632 1.124,-0.0163 1.826,0.12174 2.339,0.45686 0.569,0.3731 0.921,0.42607 1.587,0.23821 0.471,-0.13277 2.084,-0.18109 3.58399999,-0.10736 2.35800001,0.11587 2.81300001,0.21593 3.37000001,0.74095 l 0.646,0.60694 1.451,-0.76939 c 1.551,-0.82156 2.74,-0.95109 11.7689996,-1.28177 8.92,-0.32661 10.847,-0.31334 12.273,0.0851 0.782,0.21824 1.626,0.31152 1.876,0.2072 0.25,-0.10421 1.239,-0.28661 2.197,-0.4053 0.959,-0.1187 2.081,-0.3007 2.498,-0.40451 0.449,-0.11211 1.006,-0.0547 1.373,0.14149 0.468,0.25055 0.755,0.25653 1.188,0.0253 0.403,-0.21593 0.863,-0.22667 1.574,-0.0364 1.172,0.31346 1.98,0.32378 12.11,0.15466 6.5,-0.10857 7.713,-0.0678 8.241,0.27781 0.552,0.36155 0.787,0.36114 2.197,0 2.276,-0.59005 2.863,-0.52938 3.674,0.38008 0.768,0.8646 0.304,0.83432 6.602,0.43003 0.7,-0.0445 1.465,-0.24003 1.697,-0.43337 0.259,-0.21562 1.181,-0.35792 2.382,-0.36773 1.563,-0.0132 2.072,0.087 2.524,0.49442 0.775,0.69913 0.71,1.14301 -0.24,1.6333 -0.906,0.46892 -0.995,1.00355 -0.378,2.24226 0.401,0.80617 0.395,0.87524 -0.131,1.31398 -0.507,0.42435 -0.533,0.60584 -0.307,2.1662 0.137,0.93671 0.298,1.75249 0.358,1.81287 0.06,0.0608 0.799,0.28924 1.641,0.5085 2.091,0.54467 2.681,0.34768 3.225,-1.07708 0.244,-0.63916 0.733,-1.35185 1.088,-1.58377 0.383,-0.25106 0.714,-0.79835 0.818,-1.35285 0.241,-1.28946 1.229,-2.28836 2.261,-2.28836 1.172,0 3.45201,1.7126 3.47601,2.61264 0.02,0.63127 1.064,0.33514 1.659,-0.469 0.619,-0.83858 1.246,-1.01642 1.761,-0.50072 0.225,0.22555 0.933,-0.0141 2.762,-0.93549 1.855,-0.93378 2.635,-1.19588 3.167,-1.06463 1.003005,0.24713 2.449005,1.40623 2.449005,1.96397 0,0.77335 0.711,1.15596 1.86,1.00193 1.424,-0.19111 2.16,0.34323 2.16,1.56827 0,1.15637 0.393,1.32865 2.065,0.90612 0.707,-0.17845 1.768,-0.30829 2.357,-0.28863 0.589,0.0192 1.344,-0.10706 1.675,-0.28166 0.465,-0.24397 1.001,-0.24479 2.309,0 0.938,0.17268 1.984,0.31406 2.322,0.31406 0.341,0 0.817,0.17947 1.059,0.39893 0.416,0.37635 2.747,0.88414 4.826,1.05115 0.517,0.0416 1.423,0.15992 2.015,0.26332 1.08699,0.1902 1.37899,0.08 5.00499,-1.88273 0.664,-0.35944 0.829,-0.33604 2.067,0.29117 1.565,0.79279 1.96,0.83077 2.816,0.2703 0.562,-0.36925 0.747,-0.36965 1.799,0 0.643,0.22424 1.48,0.40948 1.858,0.41169 0.823,0 2.127,1.26992 2.127,2.06555 0,0.30717 0.226,0.83888 0.504,1.18139 0.42,0.51885 0.847,0.65101 2.563,0.79128 2.773,0.22686 4.574,-0.19222 5.481,-1.27568 0.683,-0.8159 0.736,-0.82967 3.108,-0.82287 2.831,0.0102 3.378,0.21217 3.299,1.23162 -0.03,0.40339 0.03,0.8806 0.148,1.06067 0.548,0.88769 2.161,-0.17977 1.999,-1.32449 -0.08,-0.57141 0.03,-0.63795 1.281,-0.76374 1.488,-0.14979 2.957,-1.00507 4.342,-2.52574 0.659,-0.72545 1.075,-0.9198 2.294,-1.07201 0.818,-0.10219 2.005,-0.10969 2.637,-0.0162 1.619,0.23861 4.077,-0.45615 5.08,-1.4358 0.441,-0.43093 1.364,-0.9357 2.054,-1.12185 1.645,-0.44531 1.92,-0.69029 1.92,-1.71511 0,-0.89601 0.898,-2.01755 1.624,-2.03051 0.212,0 1.048,-0.4288 1.857,-0.94451 1.275,-0.81122 1.622,-0.91533 2.574,-0.77234 0.866,0.12984 1.139,0.0739 1.267,-0.26129 0.21,-0.5475 1.351,-0.55215 1.803,-0.0102 0.239,0.28926 0.561,0.36207 1.038,0.23486 1.212,-0.32389 6.25,-0.39548 6.614,-0.0942 0.204,0.17046 0.823,0.20925 1.565,0.0982 0.814,-0.12213 1.356,-0.0749 1.615,0.14089 0.392,0.32469 2.761,0.084 5.232,-0.5313 1.158,-0.28845 2.411,-0.0629 2.411,0.43356 0,0.50325 0.263,0.46577 0.921,-0.13135 0.645,-0.58589 3.232,-1.00255 3.504,-0.56422 0.102,0.15769 0.739,0.26525 1.426,0.23901 0.688,-0.0263 1.732,0.14473 2.322,0.37979 0.635,0.25279 2.173,0.47145 3.769,0.53535 1.483,0.0598 2.954,0.2457 3.268,0.41382 0.453,0.24245 0.837,0.20225 1.858,-0.19435 1.072,-0.41635 1.617,-0.46385 3.252,-0.28368 1.082,0.1191 2.107,0.32845 2.279,0.46527 0.533,0.42425 3.361,0.69729 7.413,0.71572 3.87,0.0172 4.08,0.0496 9.425,1.42405 0.542,0.13926 1.326,0.4914 1.741,0.78267 0.417,0.29118 1.234,0.60372 1.816,0.69446 0.878,0.13713 1.213,0.0466 1.981,-0.53971 1.732,-1.32186 4.71,-1.10361 6.474,0.4744 3.299,2.95342 3.483,3.15678 3.483,3.83798 0,0.38292 0.236,0.93235 0.526,1.22099 0.653,0.65375 2.569,1.64929 2.777,1.44248 0.08,-0.084 0.525,-0.0243 0.977,0.13409 0.483,0.16793 1.074,0.19526 1.422,0.0658 0.451,-0.16801 0.782,-0.0658 1.363,0.42304 0.74,0.6186 0.799,0.6266 1.475,0.19769 2.098,-1.33067 2.323,-2.10403 1.24,-4.24016 -0.369,-0.72494 -0.67,-1.77295 -0.67,-2.32876 0,-0.55591 -0.12,-1.08518 -0.266,-1.17623 -0.469,-0.28944 -0.29,-1.16063 0.326,-1.59257 0.702,-0.49151 3.197,-0.56331 3.918,-0.11283 0.379,0.23578 0.816,0.19617 1.94,-0.17511 0.798,-0.26372 1.692,-0.63207 1.988,-0.81872 1.007,-0.63733 3.455,-0.75127 5.091,-0.23699 1.257,0.3957 2.059,0.44339 4.975,0.29583 2.79,-0.14118 3.668,-0.0962 4.442,0.22738 0.531,0.22179 1.609,0.40328 2.397,0.40328 1.22,0 1.571,-0.12316 2.383,-0.83482 0.899,-0.79007 1.01,-0.81964 2.085,-0.55085 0.643,0.16072 2.705,0.2378 4.753,0.17763 6.802,-0.19991 7.641,-0.19243 10.241,0.0911 1.889,0.2063 2.812,0.43691 3.357,0.83988 1.011,0.74885 3.262,1.00852 4.114,0.47499 1.16,-0.72666 2.045,-0.78216 3.187,-0.19992 0.587,0.29978 1.76501,0.61799 2.62001,0.70722 1.342,0.14037 1.824,0.0506 3.555,-0.66428 1.676,-0.69283 2.502,-0.85568 5.102,-1.00648 2.778,-0.16113 3.261,-0.12022 4.633,0.39254 1.642,0.61424 3.104,0.72302 4.35,0.32348 0.427,-0.13692 1.742,-0.31993 2.92,-0.40663 1.179,-0.087 2.985,-0.25491 4.011,-0.37381 1.045,-0.12113 2.46,-0.10816 3.215,0.0294 1.106,0.20134 1.507,0.16012 2.23,-0.22888 0.865,-0.46506 0.925,-0.46 3.065,0.26281 2.9,0.97854 7.399,1.37858 8.778,0.78033 0.519,-0.22492 2.089,-0.48308 3.488,-0.57373 2.892,-0.18705 9.09,-0.0891 9.476,0.15009 0.141,0.087 1.775,0.18373 3.631,0.21452 1.854,0.0303 3.795,0.19262 4.308,0.35953 0.516,0.1669 1.293,0.30352 1.728,0.30352 0.486,0 1.07,0.26748 1.514,0.69324 l 0.725,0.69324 2.133,-0.43509 c 2.117,-0.43204 2.359,-0.42028 5.359,0.2615 0.556,0.1266 0.603,0.28621 0.606,2.07476 0,1.06564 0.16,2.48017 0.351,3.14343 0.31,1.0701 0.513,1.28855 1.806,1.94108 1.443,0.72868 1.49,0.73384 5.342,0.57575 3.741,-0.15353 5.637,-0.18138 6.632,-0.0972 0.258,0.0213 1.193,-0.0861 2.077,-0.23983 4.739,-0.82358 4.427,-0.80981 4.977,-0.22047 0.28,0.30058 0.587,0.97761 0.682,1.50445 0.258,1.43683 0.583,1.89571 1.339,1.89571 0.582,0 2.17,-1.05166 3.538,-2.34465 0.493,-0.4674 2.321,-0.42253 2.728,0.0669 0.585,0.7064 2.099,0.48329 3.635,-0.53596 0.777,-0.51581 1.527,-0.93783 1.666,-0.93783 0.14,0 0.58,-0.25673 0.979,-0.57038 l 0.725,-0.57029 -0.186,-2.61691 c -0.183,-2.58964 -0.179,-2.61891 0.45,-2.82288 0.349,-0.11333 0.997,-0.2294 1.439,-0.25785 3.259,-0.20984 5.217,-0.54913 6.295,-1.09055 0.667,-0.33472 2.015,-0.75664 2.997,-0.93752 1.651,-0.30424 1.888,-0.2853 3.134,0.25126 0.898,0.38628 2.182,0.63461 3.84,0.74287 1.893,0.12357 2.843,0.32996 3.951,0.85892 1.33,0.63462 1.77,0.69852 4.962,0.71999 l 3.503,0.0233 1.533,1.24794 c 1.423,1.15911 2.274,1.53789 4.412,1.96567 0.729,0.14585 0.886,0.0678 1.242,-0.61931 0.224,-0.43234 0.909,-1.24093 1.524,-1.79675 1.215,-1.09803 1.077,-1.08568 4.36,-0.38961 1.204,0.25553 1.755,0.25877 2.43,0.0142 0.48,-0.17359 1.207,-0.31569 1.617,-0.31569 0.409,0 1.403,-0.19191 2.21,-0.42637 1.718,-0.49949 2.252,-0.4052 3.856,0.6814 0.655,0.44388 1.513,0.80919 1.907,0.81193 0.621,0 0.903,0.33026 2.098,2.41647 0.759,1.32642 1.557,2.4117 1.773,2.4117 0.216,0 1.021,-0.45604 1.788,-1.01337 2.144,-1.55613 2.804,-1.93419 3.384,-1.93419 0.321,0 0.919,-0.50609 1.503,-1.27284 0.533,-0.70003 1.172,-1.34587 1.419,-1.43521 0.661,-0.23911 1.876,0.26404 2.064,0.85468 0.212,0.66864 0.835,0.65699 1.199,-0.0223 0.157,-0.29482 0.494,-0.53687 0.747,-0.53798 0.252,0 1.382,-0.52907 2.509,-1.17339 1.128,-0.64433 2.484,-1.24642 3.016,-1.33788 0.529,-0.0911 1.394,-0.24083 1.921,-0.33197 0.526,-0.0911 1.022,-0.33229 1.1,-0.53596 0.09,-0.24347 0.58,-0.37017 1.422,-0.37017 1.07,0 1.304,0.0911 1.425,0.5548 0.133,0.51023 0.315,0.54912 2.26,0.48288 1.294,-0.0445 2.442,0.0639 2.961,0.27872 0.643,0.26686 1.217,0.2862 2.394,0.0811 2.007,-0.35052 3.875,-0.21258 4.732,0.34961 0.667,0.4365 0.705,0.42656 1.447,-0.38688 0.657,-0.71937 1.003,-0.85711 2.495,-0.99648 1.587,-0.14836 1.797,-0.10511 2.545,0.52453 l 0.816,0.68625 1.674,-0.79736 c 2.392,-1.13905 3.122,-1.23729 4.057,-0.54588 0.427,0.31517 0.874,0.57303 0.995,0.57303 0.12,0 0.517,0.21076 0.882,0.46851 0.575,0.40744 1.19,0.45615 4.715,0.374 3.263,-0.076 4.178,-0.0162 4.689,0.30759 0.518,0.32681 1.088,0.36105 3.049,0.1827 1.326,-0.12073 4.886,-0.1501 7.912,-0.0658 3.98,0.1114 5.665,0.0669 6.092,-0.16255 0.391,-0.20853 1.181,-0.25623 2.317,-0.13986 1.521,0.15587 1.744,0.25167 1.884,0.81174 0.09,0.3492 0.323,0.635 0.521,0.635 0.198,0 0.688,0.25795 1.09,0.57323 0.6,0.47255 0.702,0.71977 0.576,1.40683 -0.08,0.45838 0.02,1.42537 0.244,2.14889 0.219,0.72342 0.398,2.26293 0.398,3.42114 0,1.74115 -0.185,2.65689 -1.064,5.28969 -1.34,4.00661 -1.475,4.87931 -1.068,6.86241 0.181,0.88041 0.364,2.56534 0.408,3.74441 0.04,1.17906 0.196,2.51876 0.336,2.97713 0.165,0.53414 0.163,1.71685 0,3.29391 -0.143,1.35338 -0.193,2.64311 -0.107,2.86632 0.08,0.223 0.227,2.97636 0.317,6.11846 0.148,5.3072 0.118,5.8772 -0.429,8.0217 -0.398,1.5576 -0.531,2.6359 -0.409,3.3156 0.101,0.5538 0.244,2.2299 0.321,3.7247 0.136,2.6421 0.109,2.8136 -0.982,6.1632 -1.167,3.5816 -1.412,5.8561 -0.805,7.4554 0.151,0.3927 0.272,1.5814 0.272,2.6412 0,1.0598 0.121,2.3447 0.266,2.8552 0.177,0.6188 0.174,1.9177 -0.01,3.8946 -0.232,2.5046 -0.211,3.1195 0.136,3.9516 0.253,0.6021 0.412,1.8029 0.412,3.0867 0,1.4325 0.125,2.2665 0.393,2.6212 0.476,0.6272 0.512,1.6261 0.118,3.1932 -0.258,1.0176 -0.203,1.4841 0.424,3.6136 0.488,1.6586 0.634,2.5491 0.454,2.7685 -0.144,0.178 -0.246,1.1247 -0.222,2.1041 0.03,1.3996 -0.07,1.8984 -0.461,2.3323 -0.4,0.4421 -0.446,0.7011 -0.24,1.301 0.142,0.412 0.202,2.0409 0.13,3.6196 -0.107,2.3579 -0.218,2.9515 -0.63,3.3241 -0.639,0.5783 -0.634,0.6606 0.162,2.3417 0.69,1.4578 0.857,2.8791 1.064,9.0153 0.454,13.5589 0.454,13.3974 0.02,14.8895 -0.381,1.3112 -0.382,1.5332 -0.01,2.2508 0.429,0.829 0.467,1.3373 0.431,5.7704 -0.03,3.3546 -0.146,4.9579 -0.412,5.565 -0.115,0.2606 -0.07,0.8032 0.09,1.2058 0.187,0.4597 0.32,3.4413 0.358,8.0155 0.05,6.6855 0.02,7.3271 -0.423,7.816 -0.465,0.5132 -0.463,0.6022 0.06,2.4485 0.598,2.1119 0.54,2.5532 -0.444,3.3714 -0.581,0.4831 -0.672,0.7924 -0.714,2.4117 -0.03,1.0215 0.06,2.1588 0.201,2.5274 0.138,0.3684 0.239,1.1291 0.223,1.6905 -0.02,0.5614 0.151,1.3693 0.371,1.7955 0.539,1.0422 0.52,3.5848 -0.03,4.4282 -0.545,0.8323 -1.494,0.8619 -1.848,0.058 -0.29,-0.6614 -1.364,-0.9509 -1.823,-0.4916 -0.424,0.4243 -1.442,0.3552 -1.619,-0.1102 -0.121,-0.3149 -0.53,-0.3786 -1.909,-0.2971 -0.966,0.057 -1.908,0.2302 -2.094,0.3849 -0.187,0.1546 -0.497,0.9975 -0.692,1.8731 -0.438,1.9707 -0.204,2.4965 1.331,3.003 0.645,0.2133 1.181,0.5773 1.253,0.8523 0.07,0.2841 0.669,0.6715 1.455,0.9489 1.836,0.6488 2.36,1.2003 2.36,2.489 0,0.5837 -0.108,1.0614 -0.242,1.0614 -0.133,0 -0.488,0.4181 -0.789,0.9292 -0.309,0.5237 -0.847,1.0042 -1.233,1.1009 -0.932,0.234 -0.878,1.0253 0.12,1.7637 0.827,0.6115 1.016,1.2451 0.522,1.7405 -0.303,0.3031 0.693,2.7872 1.676,4.1825 0.91,1.2895 0.05,3.3594 -1.751,4.221 -0.794,0.3797 -0.849,0.4985 -0.861,1.8391 -0.01,1.5806 -0.549,2.2735 -1.572,2.0342 -1.119,-0.2619 -1.349,0.197 -0.967,1.9258 0.191,0.8613 0.327,2.0205 0.303,2.5757 -0.02,0.5554 0.09,1.2632 0.258,1.573 0.373,0.6947 -0.128,4.5239 -0.74,5.6747 -0.395,0.7419 -0.848,2.8956 -0.997,4.7388 -0.04,0.5158 -0.16,1.4218 -0.264,2.0134 -0.19,1.0878 -0.08,1.3798 1.884,5.0054 0.359,0.6639 0.334,0.8302 -0.292,2.0679 -0.795,1.567 -0.83,1.9591 -0.266,2.8217 0.376,0.5741 0.376,0.7305 0,1.6311 -0.229,0.5477 -0.416,1.3731 -0.416,1.834 0,0.6342 -0.224,1.0174 -0.924,1.5751 -0.508,0.4052 -1.15,0.7369 -1.427,0.7369 -1.011,0 -1.59,1.0698 -1.744,3.2195 -0.189,2.6703 0.253,4.3914 1.346,5.2471 l 0.833,0.6517 -0.05,2.5326 c -0.06,2.8068 -0.241,3.1811 -1.577,3.2054 -1.641,0.029 -1.012,2.0252 0.637,2.0252 0.727,0 0.763,0.058 0.763,1.2246 0,1.3668 0.837,2.8225 2.481,4.3113 0.778,0.7049 0.965,1.0954 1.12,2.3342 0.102,0.8183 0.107,2.014805 0.01,2.659105 -0.236,1.569 0.375,3.5435 1.588,5.1325 0.548,0.7177 1.036,1.7186 1.133,2.3221 0.186,1.1616 0.69,1.5774 1.915,1.5774 0.811,0 1.667,0.7002 1.667,1.3646 0,0.2113 0.434,1.0285 0.963,1.8158 0.865,1.2838 0.946,1.5534 0.788,2.6111 -0.141,0.9344 -0.09,1.213 0.241,1.3402 0.54,0.207 0.547,1.5392 0.01,1.984 -0.27,0.2242 -0.341,0.5296 -0.211,0.9038 0.428,1.2358 0.466,5.8822 0.05,6.5435 -0.267,0.4293 -0.273,0.6974 -0.02,1.2473 0.256,0.5601 0.242,0.8867 -0.07,1.6293 -0.347,0.831 -0.333,1.2179 0.135,3.6732 0.647,3.3955 0.65,3.2758 -0.08,3.9607 l -0.603,0.5661 0.562,0.4579 c 0.687,0.5612 1.115,3.089401 0.623,3.681901 -0.188,0.2278 -0.251,0.7792 -0.155,1.3823 0.107,0.6898 0,1.3536 -0.347,2.1239 -0.341,0.7578 -0.523,1.8424 -0.561,3.3497 -0.03,1.2258 -0.18,2.7869 -0.332,3.4689 -0.222,0.9992 -0.19,1.4524 0.163,2.3348 0.356,0.8879 0.392,1.4531 0.2,2.9914 -0.131,1.043 -0.353,2.0423 -0.493,2.2205 -0.42,0.5338 -0.663,3.0356 -0.708,7.2909 -0.03,3.0739 -0.177,4.5868 -0.617,6.4311 -0.802,3.3455 -1.019,3.9954 -1.63,4.8668 -0.294,0.4183 -0.6,1.2125 -0.68,1.7648 -0.117,0.8205 0,1.1591 0.566,1.848 0.561,0.6664 0.732,1.1936 0.816,2.5115 0.138,2.1525 -0.234,2.9118 -2.717,5.5557 -1.596,1.6988998 -2.098,2.0765998 -2.758,2.0765998 -1.513,0 -2.629,2.3311 -2.541,5.3023 0.01,0.5171 -0.212,1.2039 -0.551,1.6632 l -0.579,0.7822 0.997,1.2174 c 1.149,1.4022 1.725,1.5104 3.394,0.6394 0.61,-0.3179 1.703,-0.6349 2.426,-0.7045 0.724,-0.07 1.381,-0.2315 1.462,-0.3598 0.269,-0.4379 1.152,-0.2345 1.57,0.3622 0.484,0.6916 0.573,3.4284 0.126,3.8758 -0.348,0.3474 0.419,3.1452 1.075,3.9261 0.623,0.743 0.733,4.1481002 0.168,5.2421002 -0.475,0.9177 -0.542,4.002601 -0.143,6.591501 0.155,1.0101 0.102,1.5375 -0.213,2.143797 -0.247,0.475 -0.427,1.5325 -0.44,2.5855 -0.02,1.6205 0.05,1.8446 0.729,2.4781 0.722,0.671 0.742,0.7584 0.539,2.3717 -0.117,0.9214 -0.173,3.1223 -0.124,4.8909 0.172,6.3327 0.159,7.2697 -0.149,9.8497 -0.194,1.628 -0.467,2.769 -0.722,3.0236 -0.435,0.4356 -0.961,2.0424 -0.964,2.9467 0,0.3004 0.241,1.0194 0.535,1.5974 0.673,1.319 0.671,1.735 0,3.0487 -0.884,1.6945 -0.859,3.5774 0.08,5.9298 0.678,1.6975 0.822,2.4896 0.936,5.1229 0.119,2.726 0.06,3.3044 -0.432,4.6324 -0.622,1.6626 -0.699,2.6694 -0.318,4.1459 0.14,0.5329 0.451,2.8525 0.693,5.1544 0.359,3.4068 0.378,4.3893 0.113,5.2801 -0.281,0.9366 -0.266,1.1917 0.112,1.7673 0.579,0.8854 0.559,1.2395 -0.205,3.4849 -1.075,3.165 -1.385,7.568 -0.613,8.7451 0.243,0.3708 0.432,1.031296 0.423,1.467896 -0.01,0.4364 0.07,2.7511 0.178,5.1435 0.172,3.7812 0.138,4.5074 -0.263,5.5544 -0.272,0.7129 -0.383,1.4457 -0.271,1.7961 0.328,1.0315 0.128,4.4284 -0.414,7.0569 -0.348,1.6923 -0.395,1.812 -1.14,2.8599 -0.438,0.6162 -0.439,0.7813 -0.04,2.6501 0.38,1.7577 0.385,2.2142 0.06,3.8687 l -0.374,1.8757 -2.403,0.1704 c -2.671,0.1893 -3.524,0.3865 -4.2,0.9707 -0.752,0.6485 -1.377,2.9607 -1.285,4.7479 0.05,0.8877 0.13,2.5184 0.189,3.6236 0.108,2.0269 0.128,3.5139 0.06,4.6224 -0.02,0.3316 0.101,1.3263 0.265,2.2107 0.836,4.4503 0.719,5.075 -1.013,5.3874 -1.257,0.2267 -1.839,0.5342 -2.166,1.1455 -0.21,0.3908 -0.02,0.8228 0.915,2.1122 0.65,0.8915 1.308,1.6996 1.465,1.7959 0.445,0.2765 0.329,2.0588 -0.173,2.6133 -0.608,0.6733 -0.54,2.2455 0.13,2.9785 0.294,0.3194 0.801,1.1235 1.13,1.7867 1.085,2.1913 1.109,2.2028 4.047,1.9945 2.565,-0.1818 2.596,-0.1768 2.799,0.4515 0.114,0.3495 0.232,0.9369 0.265,1.3053 0.389,4.4602 0.5,5.0679 1.207,6.596 1.08,2.3386 1.263,4.4276 0.536,6.1112 -0.381,0.8866 -0.621,2.1603 -0.73,3.8856 -0.119,1.8643 -0.3,2.7607 -0.66,3.2762 -0.594,0.8513 -1.026,3.8732 -0.953,6.6593 l 0.05,2.0097 -1.35,1.6573 c -1.079,1.3243 -1.418,1.992 -1.693,3.3222 -0.283,1.372 -0.281,1.6991 0,1.8598 0.195,0.1071 0.916,0.6622 1.604,1.2331 1.536,1.2762 1.974,2.2642 1.451,3.2765 -0.636,1.22771 -0.77,3.02731 -0.344,4.60971 0.913,3.3911 1.054,4.8664 0.579,6.0142 -0.244,0.5896 -0.599,1.2528 -0.788,1.4738 -0.19,0.2211 -0.429,0.7922 -0.531,1.2692 -0.205,0.9691 -0.824,1.48 -3.291,2.7202 -0.957,0.4808 -1.676,1.0173 -1.676,1.2512 0,0.2252 0.457,1.0374 1.014,1.8048 1.557,2.1429 1.934,2.8043 1.934,3.3834 0,0.3211 0.507,0.9194 1.274,1.5043 0.699,0.534 1.373,1.1514 1.496,1.3718 0.309,0.5455 -0.289,1.9111 -0.922,2.1121 -0.664,0.2104 -0.648,0.8345 0.03,1.1967 0.296,0.1577 0.536,0.4504 0.536,0.6504 0,0.2 0.566,1.3702 1.258,2.6005 0.77,1.3699 1.236,2.5167 1.202,2.9588 -0.03,0.3972 0.07,0.7973 0.216,0.8895 0.149,0.092 0.273,0.5152 0.273,0.9403 0,0.4732 0.21,0.9208 0.543,1.1544 0.459,0.321 0.516,0.5591 0.367,1.4986 -0.107,0.6626 -0.374,1.2218 -0.659,1.3744 -0.406,0.2167 -0.469,0.5614 -0.41,2.2009 0.04,1.205 -0.07,2.2839 -0.302,2.8384 -0.309,0.7437 -0.314,1.2306 -0.04,2.8878 0.268,1.5983 0.268,2.2172 0,3.1248 -0.677,2.2712 -0.68,2.3599 -0.09,2.514 0.684,0.1791 0.848,0.5958 1.039,2.6408 0.139,1.4849 0.09,1.6902 -0.584,2.4922 -0.683,0.8124 -0.704,0.9076 -0.302,1.3539 0.239,0.2638 0.44,0.5908 0.444,0.7266 0,0.1358 0.243,0.7293 0.527,1.3187 0.667,1.3829 0.667,2.3115 0,3.0816 -0.296,0.3398 -0.536,0.7535 -0.536,0.9193 0,0.1657 -0.197,0.5829 -0.438,0.9271 -0.352,0.5031 -0.451,1.4465 -0.504,4.8159 -0.104,6.6488 -0.166,20.3111 -0.105,22.9067 0.04,1.6257 -0.05,2.4341 -0.269,2.5722 -0.23,0.1412 -0.324,1.1944 -0.317,3.5243 0,1.8277 -0.116,4.6863 -0.271,6.3525 -0.243,2.6133 -0.224,3.117 0.135,3.6659 0.558,0.8519 0.9,9.4941 0.462,11.6598 -0.163,0.8107 -0.341,2.9577 -0.395,4.7715 l -0.09,3.2975 -0.896,0.7483 c -0.892,0.744 -0.915,0.7476 -4.127,0.6414 -1.858,-0.062 -4.326,-0.3437 -5.813,-0.6654 -2.099,-0.4538 -2.748,-0.5015 -3.456,-0.2544 -0.481,0.1671 -2.14,0.304 -3.689,0.304 -2.56,0 -3.12,-0.099 -6.113,-1.0718 -3.554,-1.1564 -5.005,-1.299 -7.26,-0.7139 -0.759,0.197 -1.768,0.3015 -2.24,0.232 -0.473,-0.07 -1.657,0.016 -2.63,0.1895 -1.274,0.2269 -2.548,0.2425 -4.538,0.054 -2.226,-0.2098 -2.977,-0.1862 -3.852,0.1223 -0.597,0.2107 -2.005,0.3839 -3.129,0.3848 -1.501,0 -2.234,0.1272 -2.762,0.4759 -0.628,0.4143 -0.988,0.442 -2.862,0.2199 -1.885,-0.223 -2.39,-0.1831 -4.149,0.3281 -2.252,0.6542 -2.854,0.7151 -2.854,0.2879 0,-0.1991 -0.499,-0.2397 -1.541,-0.1253 -1.138,0.1248 -1.743,0.061 -2.314,-0.2454 -0.583,-0.3112 -1.192,-0.3715 -2.452,-0.2423 -2.587,0.2651 -5.692,-0.1045 -6.341,-0.7552 -0.58,-0.5784 -0.714,-0.5511 -2.76,0.5546 -0.804,0.4343 -1.307,0.4787 -7.905,0.6985 -1.842,0.062 -4.435,0.1943 -5.76,0.2954 -1.327,0.1016 -2.834,0.1539 -3.35,0.1175 -0.517,-0.037 -1.12,-0.057 -1.341,-0.046 -0.221,0.011 -1.185,0.067 -2.143,0.124 -0.958,0.057 -1.863,0.033 -2.01,-0.055 -0.72,-0.4248 -2.54,-0.7216 -2.965,-0.4837 -0.477,0.2668 -4.144,0.8024 -5.074,0.741 -0.294,-0.019 -1.307,-0.031 -2.249,-0.025 -0.942,0.01 -1.871,-0.1215 -2.065,-0.2824 -0.2,-0.1649 -0.699,-0.2165 -1.145,-0.1185 -0.468,0.103 -1.012,0.038 -1.329,-0.1612 -0.438,-0.2732 -0.623,-0.2639 -1.001,0.051 -0.711,0.5896 -15.443,0.6983 -15.926,0.1173 -0.42,-0.5073 -1.122,-0.5034 -2.813,0.016 -1.691,0.5195 -2.903,0.3228 -3.293,-0.535 -0.328,-0.7185 -1.14,-0.944 -2.301,-0.6387 -0.425,0.1114 -0.986,0.088 -1.249,-0.052 -0.327,-0.1755 -0.78,-0.129 -1.441,0.1474 -0.531,0.2215 -1.248,0.3319 -1.595,0.2449 -0.345,-0.086 -1.098,0.04 -1.671,0.2822 -1.366,0.576 -3.523,0.5894 -4.608,0.029 -1.057,-0.547 -1.145,-1.4055 -0.181,-1.7722 0.931,-0.3538 1.072,-0.9023 0.527,-2.0508 -0.453,-0.9544 -0.451,-0.9873 0.11,-1.4093 0.526,-0.3978 0.554,-0.5661 0.342,-2.113 -0.126,-0.9244 -0.355,-1.8044 -0.505,-1.9558 -0.151,-0.1515 -1.066,-0.4106 -2.03,-0.576 -1.828,-0.3131 -2.603,-0.086 -2.603,0.7587 0,0.638 -0.613,1.7216 -0.974,1.7216 -0.411,0 -1.171,1.3527 -1.171,2.0836 0,0.824 -1.175,1.7162 -2.303,1.7483 -0.599,0.017 -1.056,-0.1096 -1.122,-0.3113 -0.06,-0.1869 -0.405,-0.4506 -0.762,-0.5861 -0.358,-0.1357 -0.899,-0.6705 -1.204,-1.1887 -0.306,-0.518 -0.646,-0.9419 -0.756,-0.9419 -0.112,0 -0.65,0.4346 -1.196,0.9656 -0.927,0.8998 -1.026,0.9362 -1.472,0.5324 -0.445,-0.4026 -0.645,-0.3482 -2.847,0.7762 -2.597,1.3236 -2.889,1.3855 -3.88,0.8149 -0.368,-0.2126 -0.941,-0.5093 -1.272,-0.6594 -0.332,-0.1501 -0.603,-0.5083 -0.603,-0.7962 0,-0.9137 -0.727,-1.3842 -1.86,-1.2032 -1.503,0.2403 -2.16,-0.2142 -2.16,-1.4935 0,-1.1965 -0.632,-1.6023 -1.649,-1.058 -0.33,0.176 -1.408,0.3396 -2.398,0.3635 -1.058,0.025 -1.977,0.1925 -2.234,0.4059 -0.37,0.3066 -0.779,0.2899 -2.638,-0.1073 -1.21,-0.2585 -2.653,-0.6572 -3.205,-0.886 -0.554,-0.2289 -1.388,-0.4052 -1.855,-0.3919 -0.467,0.013 -1.16,-0.1214 -1.54,-0.2994 -0.381,-0.178 -1.66,-0.3211 -2.842,-0.3184 -2.002,0 -2.268,0.075 -3.838,1.0101 -0.928,0.5526 -1.837,1.0047 -2.02,1.0047 -0.183,0 -0.955,-0.3005 -1.718,-0.668 -1.338,-0.646 -1.414,-0.6535 -2.317,-0.2228 -0.781,0.3722 -1.107,0.3939 -1.98,0.1322 -0.576,-0.1723 -1.357,-0.3132 -1.738,-0.3132 -0.779,0 -2.323,-1.4585 -2.325,-2.1957 0,-0.2497 -0.273,-0.7582 -0.605,-1.13 -0.531,-0.5948 -0.875,-0.6927 -2.88,-0.8147 -2.996,-0.1823 -4.157,0.1073 -5.121,1.2781 l -0.766,0.9306 -2.389,-0.05 c -2.649,-0.056 -3.382,-0.3837 -3.129,-1.3945 0.14,-0.5593 -0.4,-1.4461 -0.881,-1.4461 -0.551,0 -1.403,0.9146 -1.336,1.433 0.117,0.9127 -0.262,1.2465 -1.417,1.2465 -1.383,0 -1.937,0.2981 -3.66,1.9735 l -1.416,1.376 -2.872,0.061 c -3.644,0.076 -4.953,0.3989 -6.299,1.5523 -0.595,0.5087 -1.512,1.0028 -2.042,1.0979 -1.6,0.2884 -1.899,0.5531 -1.899,1.6785 0,1.0869 -0.472,1.7025 -1.564,2.0354 -0.343,0.1051 -1.216,0.5575 -1.93601,1.0056 -1.058,0.6578 -1.498,0.7843 -2.283,0.657 -0.739,-0.1201 -1.154,-0.023 -1.733,0.4059 -0.709,0.5232 -0.809,0.5335 -1.405,0.1425 -0.481,-0.3141 -1.078,-0.3878 -2.359,-0.2901 -3.238,0.2466 -5.335,0.2734 -5.335,0.069 0,-0.3757 -1.044,-0.543 -1.583,-0.2536 -0.381,0.2038 -0.862,0.1972 -1.686,-0.023 -0.924,-0.2474 -1.66,-0.2214 -3.729,0.1315 -3.236,0.5515 -3.986,0.5586 -3.986,0.038 0,-0.5314 -0.715,-0.5162 -1.016,0.021 -0.304,0.5453 -3.368,0.8758 -3.666,0.3955 z"
       id="path942" />
  </g>
</svg>
