<?xml version="1.0" encoding="UTF-8" standalone="no"?>
<svg
   xmlns:dc="http://purl.org/dc/elements/1.1/"
   xmlns:cc="http://creativecommons.org/ns#"
   xmlns:rdf="http://www.w3.org/1999/02/22-rdf-syntax-ns#"
   xmlns:svg="http://www.w3.org/2000/svg"
   xmlns="http://www.w3.org/2000/svg"
   xmlns:sodipodi="http://sodipodi.sourceforge.net/DTD/sodipodi-0.dtd"
   xmlns:inkscape="http://www.inkscape.org/namespaces/inkscape"
   width="141.49451mm"
   height="141.79422mm"
   viewBox="0 0 141.4945 141.79422"
   version="1.1"
   id="svg8"
   inkscape:version="1.0.1 (3bc2e813f5, 2020-09-07)"
   sodipodi:docname="papsvg5.svg">
  <defs
     id="defs2">
    <filter
       inkscape:collect="always"
       style="color-interpolation-filters:sRGB"
       id="filter938-8"
       x="-0.16742614"
       width="1.3348523"
       y="-0.12874103"
       height="1.2574821">
      <feGaussianBlur
         inkscape:collect="always"
         stdDeviation="12.06218"
         id="feGaussianBlur940-2" />
    </filter>
  </defs>
  <sodipodi:namedview
     id="base"
     pagecolor="#ffffff"
     bordercolor="#666666"
     borderopacity="1.0"
     inkscape:pageopacity="0.0"
     inkscape:pageshadow="2"
     inkscape:zoom="0.35"
     inkscape:cx="44.106303"
     inkscape:cy="301.07197"
     inkscape:document-units="px"
     inkscape:current-layer="layer1"
     showgrid="false"
     inkscape:window-width="1920"
     inkscape:window-height="1057"
     inkscape:window-x="-8"
     inkscape:window-y="-8"
     inkscape:window-maximized="1"
     inkscape:document-rotation="0" />
  <metadata
     id="metadata5">
    <rdf:RDF>
      <cc:Work
         rdf:about="">
        <dc:format>image/svg+xml</dc:format>
        <dc:type
           rdf:resource="http://purl.org/dc/dcmitype/StillImage" />
        <dc:title></dc:title>
      </cc:Work>
    </rdf:RDF>
  </metadata>
  <g
     inkscape:label="Layer 1"
     inkscape:groupmode="layer"
     id="layer1"
     transform="translate(76.616021,-22.232502)">
    <path
       style="font-variation-settings:normal;opacity:1;vector-effect:none;fill:#73abff;fill-opacity:1;stroke-width:0.267961;stroke-linecap:butt;stroke-linejoin:miter;stroke-miterlimit:4;stroke-dasharray:none;stroke-dashoffset:0;stroke-opacity:1;filter:url(#filter938-8);stop-color:#000000;stop-opacity:1"
       d="m 13389.06,2483.931 c -0.663,-0.3525 -1.495,-0.7274 -1.849,-0.833 -0.355,-0.1055 -1.096,-0.4977 -1.649,-0.8713 -0.972,-0.6579 -1.177,-0.685 -6.482,-0.8546 l -5.478,-0.1752 -1.548,-0.8387 c -0.852,-0.4613 -1.701,-0.8388 -1.888,-0.8388 -0.187,0 -1.058,-0.6918 -1.936,-1.5373 -1.295,-1.2481 -1.677,-1.8172 -2.028,-3.0254 -0.436,-1.5 -2.287,-4.1771 -2.875,-4.1591 -1.394,0.043 -4.115,1.0095 -4.992,1.7738 -0.248,0.2166 -1.196,0.4501 -2.116,0.5214 -1.543,0.1195 -1.814,0.053 -3.651,-0.8983 -1.092,-0.5651 -2.319,-1.2501 -2.728,-1.5222 -0.493,-0.3284 -1.401,-0.537 -2.699,-0.6203 -1.682,-0.108 -2.094,-0.044 -2.95,0.4617 -0.962,0.5675 -1.04,0.5731 -2.328,0.1674 -0.734,-0.2309 -2.048,-0.5534 -2.921,-0.7168 -1.569,-0.2937 -1.63,-0.3393 -5.279,-3.967 -2.505,-2.4901 -3.993,-3.7681 -4.63,-3.9754 -0.517,-0.1681 -1.618,-0.8904 -2.447,-1.6051 -0.83,-0.7148 -1.9,-1.4121 -2.38,-1.5495 -0.479,-0.1375 -3.707,-0.25 -7.174,-0.25 -4.151,0 -6.5,-0.1016 -6.881,-0.2977 -0.708,-0.3646 -4.899,-4.4031 -8.543,-8.2312 -1.711,-1.7977 -2.924,-3.3266 -3.302,-4.1646 -0.362,-0.8002 -1.092,-1.7396 -1.844,-2.3743 -0.685,-0.5776 -1.583,-1.6206 -1.994,-2.3177 -0.661,-1.1193 -0.759,-1.5771 -0.841,-3.9134 -0.11,-3.1249 -0.397,-4.0373 -1.352,-4.2956 -0.992,-0.2686 -3.045,-0.1755 -3.685,0.1671 -1.08,0.5779 -2.052,0.3518 -3.01,-0.7002 -1.926,-2.1148 -2.701,-2.6201 -4.308,-2.809 -1.819,-0.2139 -2.256,-0.4289 -3.829,-1.8871 -0.664,-0.6152 -1.65,-1.2618 -2.191,-1.4369 -0.988,-0.3198 -2.175,-1.466 -2.416,-2.3322 -0.07,-0.2554 -0.209,-1.2694 -0.305,-2.2532 -0.119,-1.2152 -0.422,-2.2527 -0.947,-3.2361 -0.425,-0.7961 -0.772,-1.5812 -0.772,-1.7447 0,-0.1636 -0.287,-0.8682 -0.638,-1.5659 -0.35,-0.6978 -0.779,-1.9652 -0.952,-2.8166 -0.174,-0.8514 -0.53,-1.9051 -0.791,-2.3417 -0.26,-0.4366 -0.56,-1.3295 -0.665,-1.9844 -0.265,-1.6444 -0.679,-2.3551 -2.16,-3.707 -0.702,-0.6414 -1.545,-1.5215 -1.872,-1.9559 -0.713,-0.9455 -0.781,-2.4205 -0.154,-3.3156 0.558,-0.7971 0.569,-2.613 0.02,-3.465 -0.311,-0.4829 -0.99,-3.1259 -0.99,-3.8523 0,-0.032 -0.935,-1.001 -2.077,-2.1522 -1.481,-1.4932 -2.215,-2.4673 -2.561,-3.3981 -0.266,-0.7177 -0.692,-1.6079 -0.945,-1.9781 -0.254,-0.3703 -0.794,-1.3823 -1.202,-2.249 -0.726,-1.5466 -0.742,-1.6884 -0.88,-7.6612 -0.143,-6.1867 -0.136,-6.1428 -1.258,-8.202 -0.158,-0.2911 -0.399,-1.556 -0.536,-2.811 -0.18,-1.6627 -0.41,-2.5101 -0.847,-3.123 -0.586,-0.8239 -0.598,-0.9847 -0.59,-7.9046 v -7.0635 l 0.742,-1.3229 c 0.717,-1.2783 0.746,-1.4749 0.845,-5.8209 0.08,-3.5902 0.195,-4.6848 0.562,-5.4239 0.252,-0.5094 0.605,-1.5214 0.783,-2.249 0.178,-0.7276 0.544,-1.6802 0.813,-2.1168 0.602,-0.9746 1.587,-4.4474 1.587,-5.5932 0,-1.4025 3.434,-5.234 5.444,-6.0736 0.503,-0.2101 1.623,-0.921 2.489,-1.5798 1.234,-0.9386 1.975,-1.2813 3.422,-1.583 1.015,-0.2117 2.273,-0.6368 2.795,-0.9447 1.233,-0.7275 3.215,-0.862 8.228,-0.5582 3.591,0.2176 4.075,0.3053 4.85,0.8789 0.838,0.6206 1.022,0.6405 7.123,0.7694 l 6.263,0.1323 1.26,0.7547 c 1.236,0.74 1.323,0.7527 4.498,0.651 2.933,-0.094 3.368,-0.1735 4.618,-0.8439 1.54,-0.8263 2.456,-0.79 3.643,0.1443 1.173,0.9226 2.436,0.9067 4.222,-0.053 1.49,-0.8007 1.692,-0.8393 3.853,-0.7359 1.89,0.09 2.437,0.2201 3.19,0.7575 0.833,0.5938 1.155,0.6485 3.82,0.6485 2.435,0 3.134,-0.097 4.282,-0.5953 1.721,-0.7465 2.282,-0.7465 3.291,0 0.791,0.5843 0.944,0.5953 8.279,0.5953 h 7.473 l 1.486,-0.7518 c 1.671,-0.8457 2.567,-0.8046 3.81,0.1748 0.702,0.5523 1.039,0.5826 7.884,0.7093 7.106,0.1314 7.157,0.1364 8.077,0.7937 0.88,0.6287 1.155,0.6685 5.557,0.8041 4.374,0.1347 4.695,0.1806 5.82,0.8315 1.092,0.6314 1.504,0.6992 4.935,0.8125 3.197,0.1056 3.853,0.2012 4.497,0.6552 1.201,0.8458 1.729,0.9188 6.938,0.9596 4.915,0.039 4.933,0.041 6.185,0.7907 l 1.256,0.7521 6.95,0.063 6.95,0.063 1.055,0.6903 c 0.58,0.3797 1.367,0.7665 1.75,0.8595 0.764,0.1856 6.609,5.6994 7.115,6.7126 0.177,0.3527 0.313,1.6762 0.309,2.9967 0,1.9807 -0.116,2.5873 -0.675,3.7338 -0.595,1.2199 -0.687,1.8241 -0.844,5.5504 -0.16,3.8184 -0.235,4.2892 -0.859,5.4239 -0.62,1.1278 -0.698,1.6094 -0.846,5.2156 -0.133,3.2409 -0.256,4.1312 -0.67,4.8314 -0.5,0.8475 -0.5,0.8706 0.02,1.8282 0.747,1.3886 0.684,3.4237 -0.141,4.583 -0.61,0.8568 -0.643,1.1253 -0.781,6.3774 -0.135,5.1409 -0.181,5.533 -0.736,6.2832 -0.325,0.4401 -0.884,1.4322 -1.241,2.2047 -0.357,0.7724 -0.824,1.7021 -1.038,2.0659 -1.434,2.4412 -1.845,3.7149 -1.833,5.6832 0.01,1.6636 0.134,2.2024 0.771,3.3738 l 0.758,1.3941 v 12.4354 12.4354 l -0.605,0.9733 c -0.558,0.8965 -0.623,1.4096 -0.823,6.4989 -0.201,5.1024 -0.27,5.646 -0.902,7.0965 -0.377,0.864 -0.803,2.3785 -0.947,3.3656 -0.144,0.9871 -0.5,2.1796 -0.791,2.6501 -0.342,0.5535 -0.595,1.5903 -0.717,2.9369 -0.128,1.408 -0.396,2.4706 -0.829,3.2842 -0.351,0.6615 -0.76,1.8661 -0.909,2.6768 -0.148,0.8107 -0.499,1.8478 -0.779,2.3048 -0.281,0.4569 -0.638,1.5285 -0.794,2.3812 -0.156,0.8528 -0.542,1.9672 -0.856,2.4765 -0.533,0.8623 -0.582,1.357 -0.705,7.1884 -0.129,6.1174 -0.147,6.2825 -0.776,7.1315 -0.525,0.7102 -0.677,1.3196 -0.829,3.3314 -0.123,1.6242 -0.334,2.6639 -0.622,3.0549 -0.24,0.326 -0.677,0.9718 -0.972,1.4351 -0.336,0.527 -0.828,0.8984 -1.315,0.9922 -0.428,0.082 -1.115,0.2145 -1.528,0.2935 -0.412,0.079 -1.514,0.7757 -2.447,1.5481 -0.934,0.7725 -2.135,1.5473 -2.669,1.722 -0.534,0.1746 -1.114,0.49 -1.289,0.7008 -0.411,0.4949 -0.689,0.4744 -1.973,-0.1458 -2.25,-1.087 -3.776,-0.6139 -4.875,1.5114 -1.3,2.512 -2.621,3.1255 -4.538,2.1064 z"
       id="path996-4"
       transform="matrix(0.31751482,-0.32556577,-0.30251432,-0.29503341,-3516.43,5144.0873)" />
  </g>
</svg>
