<?xml version="1.0" encoding="UTF-8" standalone="no"?>
<svg
   xmlns:dc="http://purl.org/dc/elements/1.1/"
   xmlns:cc="http://creativecommons.org/ns#"
   xmlns:rdf="http://www.w3.org/1999/02/22-rdf-syntax-ns#"
   xmlns:svg="http://www.w3.org/2000/svg"
   xmlns="http://www.w3.org/2000/svg"
   xmlns:sodipodi="http://sodipodi.sourceforge.net/DTD/sodipodi-0.dtd"
   xmlns:inkscape="http://www.inkscape.org/namespaces/inkscape"
   width="195.25294mm"
   height="215.32753mm"
   viewBox="0 0 195.25294 215.32753"
   version="1.1"
   id="svg8"
   inkscape:version="1.0.1 (3bc2e813f5, 2020-09-07)"
   sodipodi:docname="papsvg4.svg">
  <defs
     id="defs2">
    <filter
       inkscape:collect="always"
       style="color-interpolation-filters:sRGB"
       id="filter938"
       x="-0.098039962"
       width="1.1960799"
       y="-0.10743842"
       height="1.2148768">
      <feGaussianBlur
         inkscape:collect="always"
         stdDeviation="9.0189311"
         id="feGaussianBlur940" />
    </filter>
  </defs>
  <sodipodi:namedview
     id="base"
     pagecolor="#ffffff"
     bordercolor="#666666"
     borderopacity="1.0"
     inkscape:pageopacity="0.0"
     inkscape:pageshadow="2"
     inkscape:zoom="0.35"
     inkscape:cx="786.48312"
     inkscape:cy="167.94302"
     inkscape:document-units="px"
     inkscape:current-layer="layer1"
     showgrid="false"
     inkscape:window-width="1920"
     inkscape:window-height="1057"
     inkscape:window-x="-8"
     inkscape:window-y="-8"
     inkscape:window-maximized="1"
     inkscape:document-rotation="0" />
  <metadata
     id="metadata5">
    <rdf:RDF>
      <cc:Work
         rdf:about="">
        <dc:format>image/svg+xml</dc:format>
        <dc:type
           rdf:resource="http://purl.org/dc/dcmitype/StillImage" />
        <dc:title></dc:title>
      </cc:Work>
    </rdf:RDF>
  </metadata>
  <g
     inkscape:label="Layer 1"
     inkscape:groupmode="layer"
     id="layer1"
     transform="translate(225.09924,-103.73173)">
    <path
       style="font-variation-settings:normal;opacity:1;vector-effect:none;fill:#73abff;fill-opacity:1;stroke-width:0.267961;stroke-linecap:butt;stroke-linejoin:miter;stroke-miterlimit:4;stroke-dasharray:none;stroke-dashoffset:0;stroke-opacity:1;filter:url(#filter938);stop-color:#000000;stop-opacity:1"
       d="m 13520.433,2630.3919 c -0.49,-0.3103 -0.137,-3.0162 0.543,-4.1686 0.745,-1.2631 0.541,-1.9825 -0.739,-2.6102 -0.594,-0.291 -1.563,-0.9161 -2.155,-1.3891 -0.591,-0.4729 -1.296,-0.8609 -1.566,-0.8623 -0.27,0 -1.087,-0.2952 -1.814,-0.6532 -1.507,-0.7412 -2.491,-0.8264 -3.519,-0.3048 -0.393,0.1994 -1.275,0.4441 -1.96,0.5437 -1.303,0.1895 -1.957,0.7514 -2.911,2.5025 -0.621,1.1392 -1.371,1.3538 -4.735,1.3538 -2.418,0 -3.084,-0.092 -3.982,-0.5501 -0.609,-0.3109 -1.329,-0.4873 -1.655,-0.4056 -0.317,0.08 -1.315,0.8139 -2.219,1.6318 -2.092,1.8927 -3.724,2.7163 -5.81,2.931 -1.609,0.1657 -1.696,0.142 -3.145,-0.8584 -0.82,-0.5659 -1.907,-1.2457 -2.416,-1.5106 -1.272,-0.6632 -6.348,-5.77 -6.513,-6.5538 -0.07,-0.3506 -0.213,-1.5862 -0.308,-2.7458 l -0.174,-2.1085 -2.712,-2.7863 c -1.492,-1.5325 -2.982,-3.3151 -3.311,-3.9613 -0.329,-0.6462 -1.408,-1.9673 -2.398,-2.9359 -2.126,-2.0805 -2.359,-2.7237 -2.316,-6.3816 0.03,-2.9397 -0.242,-3.8186 -1.466,-4.655 -1.074,-0.7341 -1.72,-0.7475 -3.034,-0.063 l -1.021,0.5325 -1.667,-0.5325 c -1.23,-0.3929 -2.39,-0.5325 -4.425,-0.5325 -2.28,0 -2.974,-0.1002 -4.001,-0.5775 -0.794,-0.3693 -1.787,-0.584 -2.755,-0.5953 -1.509,-0.018 -1.517,-0.014 -3.182,1.6358 -0.918,0.9095 -1.852,1.6537 -2.076,1.6537 -0.506,0 -1.628,-1.1782 -2.199,-2.3113 -0.247,-0.4888 -0.711,-0.9261 -1.083,-1.0193 -0.87,-0.2185 -2.416,-1.967 -2.64,-2.9867 -0.1,-0.4512 -0.29,-0.8883 -0.424,-0.9713 -0.134,-0.083 -0.244,-1.4285 -0.244,-2.9898 0,-2.277 0.1,-3.0361 0.508,-3.8352 0.665,-1.3042 0.952,-4.4783 0.591,-6.5291 -0.237,-1.3415 -0.487,-1.8389 -1.486,-2.9495 -0.66,-0.7347 -1.201,-1.4976 -1.201,-1.6952 0,-0.1976 -0.195,-0.7681 -0.433,-1.2678 -0.414,-0.8682 -0.407,-0.9634 0.162,-2.1389 0.477,-0.9847 0.575,-1.5616 0.49,-2.8905 -0.09,-1.4092 -0.254,-1.862 -1.085,-2.9947 -0.883,-1.2021 -1.102,-1.3483 -2.205,-1.4726 -0.848,-0.096 -1.439,-0.3527 -1.921,-0.8364 -0.625,-0.6272 -0.693,-0.8824 -0.661,-2.5052 0.02,-1.2099 0.185,-2.0352 0.489,-2.4981 0.606,-0.9254 0.582,-3.0961 -0.05,-4.0537 -0.406,-0.6197 -0.478,-1.3139 -0.478,-4.6105 v -3.8809 l 0.972,-1.4228 c 0.97,-1.4209 1.798,-3.4233 2.448,-5.9207 0.315,-1.2107 0.962,-2.6812 2.097,-4.7625 0.578,-1.0599 0.541,-3.1814 -0.08,-4.5452 -0.276,-0.608 -0.587,-1.791 -0.692,-2.6288 -0.105,-0.8379 -0.424,-2.0518 -0.71,-2.6976 -0.442,-0.9986 -0.505,-1.6346 -0.426,-4.2503 0.07,-2.3928 0.197,-3.2213 0.556,-3.7302 0.278,-0.3923 0.462,-1.1338 0.46,-1.8521 0,-0.9962 -0.18,-1.4207 -1.055,-2.5208 -1.162,-1.4596 -1.245,-1.8306 -0.664,-2.9463 0.218,-0.4169 0.396,-1.1087 0.397,-1.5374 0,-0.4288 0.315,-1.2312 0.697,-1.7832 l 0.696,-1.0036 0.03,-6.2866 c 0.03,-5.8976 0,-6.3891 -0.563,-7.9414 -0.328,-0.9101 -0.595,-1.9441 -0.595,-2.2979 0,-0.9769 -0.467,-1.9968 -0.989,-2.1611 -0.626,-0.1971 -1.314,-0.5261 -2.583,-1.2342 -0.864,-0.4822 -1.074,-0.7551 -1.144,-1.4866 -0.05,-0.4928 -0.01,-1.1827 0.07,-1.5331 0.195,-0.7769 2.453,-2.9938 3.05,-2.9938 0.237,0 0.834,-0.2977 1.327,-0.6615 0.493,-0.3638 1.082,-0.6622 1.308,-0.6632 0.226,-9e-4 0.767,-0.236 1.201,-0.5223 0.435,-0.2862 1.328,-0.596 1.985,-0.6884 0.657,-0.092 1.451,-0.329 1.765,-0.526 0.314,-0.197 1.148,-0.4992 1.852,-0.6714 0.705,-0.1723 1.595,-0.4702 1.978,-0.662 0.502,-0.2517 2.453,-0.3712 7.011,-0.4295 5.62,-0.072 6.418,-0.1363 7.242,-0.5854 0.901,-0.4914 5.014,-1.043 7.143,-0.958 0.51,0.02 5.575,0.1219 11.257,0.2257 9.103,0.1664 10.413,0.2427 11.022,0.6419 0.38,0.2491 1.268,0.5939 1.972,0.7662 0.705,0.1723 1.603,0.4744 1.996,0.6715 1.046,0.5244 3.096,0.4471 4.228,-0.1594 0.803,-0.4302 1.65,-0.5372 5.023,-0.6339 2.232,-0.064 4.435,-0.2369 4.897,-0.3842 0.618,-0.1971 1.107,-0.1725 1.852,0.093 0.558,0.1987 2.085,0.3663 3.398,0.3727 1.794,0.01 2.614,0.1328 3.307,0.5006 0.645,0.3419 1.771,0.5397 3.745,0.6576 3.086,0.1843 4,0.5231 6.438,2.384 1.402,1.0712 2.185,1.1945 3.231,0.5091 0.62,-0.4062 1.446,-0.454 7.285,-0.4214 5.266,0.03 6.675,0.1122 7.031,0.4129 0.244,0.2068 1.159,0.7224 2.032,1.1458 1.445,0.7008 1.908,0.7823 5.159,0.9087 2.862,0.1111 3.715,0.2349 4.29,0.6226 0.418,0.2817 1.413,0.5417 2.382,0.6223 0.914,0.076 1.929,0.3049 2.254,0.5082 0.325,0.2033 1.015,0.458 1.535,0.5659 0.845,0.1756 1.015,0.3634 1.616,1.7827 0.37,0.8726 0.781,2.1306 0.915,2.7955 0.134,0.6649 0.778,2.2723 1.431,3.5719 1.05,2.0906 1.186,2.5659 1.187,4.1241 0,2.3997 1.052,4.7273 3.105,6.8791 l 1.526,1.5986 0.132,5.8733 c 0.118,5.2298 0.189,5.9588 0.645,6.6545 0.694,1.0581 0.708,3.6578 0.02,4.7 -0.705,1.0765 -0.857,7.6143 -0.224,9.6661 0.37,1.1984 0.384,1.5573 0.1,2.3526 -0.187,0.5162 -0.421,2.2687 -0.521,3.8946 -0.142,2.3323 -0.293,3.12 -0.716,3.7328 -1.372,1.9915 -1.687,3.3193 -1.687,7.1069 0,3.2778 0.06,3.74 0.714,5.3749 0.57,1.4268 1.145,2.2309 2.842,3.9743 1.17,1.2021 2.21,2.3928 2.31,2.6459 0.1,0.2531 0.191,2.0693 0.201,4.036 0.02,3.1445 0.09,3.7029 0.591,4.6302 0.517,0.9517 0.585,1.5568 0.694,6.2138 0.09,3.9329 0.217,5.348 0.527,5.9531 0.224,0.4365 0.503,1.8402 0.622,3.1193 0.123,1.331 0.388,2.5725 0.619,2.9031 0.223,0.3177 0.405,1.1063 0.405,1.7524 0,1.4953 -1.003,3.1363 -3.596,5.8851 -2.052,2.1746 -2.097,2.2606 -2.351,4.5034 -0.133,1.1667 -0.394,1.7948 -1.191,2.8626 -0.561,0.7524 -1.158,1.9445 -1.328,2.6493 -0.174,0.7253 -0.683,1.7219 -1.173,2.2968 -0.477,0.5585 -1.074,1.4322 -1.327,1.9415 -0.52,1.0453 -4.817,5.2917 -5.355,5.2917 -0.192,0 -0.794,0.2381 -1.337,0.5292 -0.543,0.291 -1.268,0.5291 -1.612,0.5291 -0.991,0 -2.113,0.8177 -2.523,1.8384 -0.435,1.0827 -2.456,3.1879 -3.064,3.1905 -0.226,0 -0.768,0.2383 -1.205,0.5274 -0.516,0.3421 -1.241,0.5263 -2.076,0.5274 -1.915,0 -2.891,0.5791 -3.587,2.1193 -0.655,1.449 -4.292,4.946 -5.748,5.5275 -0.466,0.1857 -1.038,0.7194 -1.307,1.2176 -0.262,0.4879 -0.758,1.015 -1.102,1.1715 -0.343,0.1564 -0.826,0.636 -1.072,1.0658 -0.327,0.57 -0.716,0.8264 -1.435,0.948 -0.543,0.092 -1.259,0.3786 -1.59,0.6376 -0.332,0.2589 -0.901,0.5634 -1.265,0.6765 -0.364,0.1132 -1.076,0.4272 -1.583,0.6979 -0.508,0.2707 -1.222,0.4929 -1.588,0.4939 -0.366,0 -1.022,0.2383 -1.459,0.5274 -0.816,0.5405 -2.373,0.6943 -3,0.2965 z"
       id="path998"
       transform="rotate(5.7508215,29954.723,-134273.44)" />
  </g>
</svg>
