<?xml version="1.0" encoding="UTF-8" standalone="no"?>
<svg
   xmlns:dc="http://purl.org/dc/elements/1.1/"
   xmlns:cc="http://creativecommons.org/ns#"
   xmlns:rdf="http://www.w3.org/1999/02/22-rdf-syntax-ns#"
   xmlns:svg="http://www.w3.org/2000/svg"
   xmlns="http://www.w3.org/2000/svg"
   xmlns:sodipodi="http://sodipodi.sourceforge.net/DTD/sodipodi-0.dtd"
   xmlns:inkscape="http://www.inkscape.org/namespaces/inkscape"
   width="316.57483mm"
   height="330.72394mm"
   viewBox="0 0 316.57482 330.72394"
   version="1.1"
   id="svg8"
   inkscape:version="1.0.1 (3bc2e813f5, 2020-09-07)"
   sodipodi:docname="papsvg3.svg">
  <defs
     id="defs2">
    <filter
       inkscape:collect="always"
       style="color-interpolation-filters:sRGB"
       id="filter938"
       x="-0.098039962"
       width="1.1960799"
       y="-0.10743842"
       height="1.2148768">
      <feGaussianBlur
         inkscape:collect="always"
         stdDeviation="9.0189311"
         id="feGaussianBlur940" />
    </filter>
  </defs>
  <sodipodi:namedview
     id="base"
     pagecolor="#ffffff"
     bordercolor="#666666"
     borderopacity="1.0"
     inkscape:pageopacity="0.0"
     inkscape:pageshadow="2"
     inkscape:zoom="0.35"
     inkscape:cx="883.21717"
     inkscape:cy="306.73929"
     inkscape:document-units="px"
     inkscape:current-layer="layer1"
     showgrid="false"
     inkscape:window-width="1920"
     inkscape:window-height="1057"
     inkscape:window-x="-8"
     inkscape:window-y="-8"
     inkscape:window-maximized="1"
     inkscape:document-rotation="0" />
  <metadata
     id="metadata5">
    <rdf:RDF>
      <cc:Work
         rdf:about="">
        <dc:format>image/svg+xml</dc:format>
        <dc:type
           rdf:resource="http://purl.org/dc/dcmitype/StillImage" />
        <dc:title></dc:title>
      </cc:Work>
    </rdf:RDF>
  </metadata>
  <g
     inkscape:label="Layer 1"
     inkscape:groupmode="layer"
     id="layer1"
     transform="translate(250.69346,-67.008551)">
    <path
       style="font-variation-settings:normal;opacity:1;vector-effect:none;fill:#73abff;fill-opacity:1;stroke-width:0.267961;stroke-linecap:butt;stroke-linejoin:miter;stroke-miterlimit:4;stroke-dasharray:none;stroke-dashoffset:0;stroke-opacity:1;filter:url(#filter938);stop-color:#000000;stop-opacity:1"
       d="m 13173.937,2748.0376 c -0.946,-0.1141 -2.711,-0.3212 -3.921,-0.4602 -2.277,-0.2614 -3.149,-0.6905 -5.507,-2.7102 -1.528,-1.309 -3.408,-1.2357 -4.904,0.1912 -0.559,0.5332 -1.059,0.7018 -2.402,0.8095 l -1.696,0.1362 -1.434,-1.2547 c -0.789,-0.6901 -1.614,-1.4614 -1.832,-1.714 -0.81,-0.9372 -2.088,-0.8474 -3.307,0.2323 -0.291,0.2577 -1.194,0.6212 -2.006,0.8077 -1.827,0.4197 -3.837,0.06 -5.116,-0.916 -0.476,-0.363 -0.955,-0.6601 -1.065,-0.6601 -0.11,0 -0.599,-0.1894 -1.087,-0.421 -0.661,-0.3137 -1.004,-0.735 -1.347,-1.6536 -0.253,-0.678 -1.088,-1.9197 -1.856,-2.7593 -0.802,-0.8779 -1.532,-1.9809 -1.716,-2.5953 -0.506,-1.6893 -1.305,-1.867 -2.96,-0.6584 -0.676,0.4931 -1.197,0.5555 -5.292,0.6336 l -4.543,0.087 -1.052,-0.7151 c -0.712,-0.4833 -1.597,-0.7824 -2.73,-0.923 -1.072,-0.1329 -2.037,-0.4465 -2.676,-0.8688 -0.549,-0.3635 -1.459,-0.788 -2.021,-0.9434 -0.743,-0.2051 -1.687,-0.9435 -3.448,-2.6968 l -2.424,-2.4142 -1.836,-0.2016 c -3.246,-0.3562 -4.051,-1.2665 -4.052,-4.5818 0,-2.1628 -0.419,-3.5922 -1.335,-4.5674 -0.695,-0.7395 -1.054,-2.783 -0.72,-4.0976 0.36,-1.4187 0.05,-3.1952 -0.775,-4.4066 -0.377,-0.555 -0.901,-1.5112 -1.164,-2.1252 -0.555,-1.2935 -0.673,-1.3346 -4.209,-1.4693 -2.101,-0.08 -2.744,-0.214 -3.916,-0.8168 -0.888,-0.4563 -2.026,-0.7793 -3.101,-0.8797 -1.058,-0.099 -2.02,-0.3688 -2.552,-0.7164 -1.923,-1.256 -2.994,-1.7484 -3.802,-1.7484 -1.095,0 -1.35,-0.3485 -1.506,-2.0532 -0.149,-1.6309 -0.676,-2.3254 -1.944,-2.5633 -0.501,-0.094 -1.476,-0.498 -2.166,-0.8978 -0.69,-0.3997 -1.611,-0.9037 -2.048,-1.12 -0.583,-0.289 -0.899,-0.7246 -1.192,-1.6438 -0.26,-0.8158 -0.763,-1.5754 -1.448,-2.1846 -1.119,-0.9957 -1.319,-1.0676 -3.577,-1.2854 -1.441,-0.1389 -1.483,-0.1681 -4.126,-2.8646 l -2.671,-2.7242 -0.288,-1.9412 c -0.182,-1.2272 -0.524,-2.2978 -0.93,-2.9107 -0.509,-0.7689 -0.668,-1.4229 -0.768,-3.1602 -0.146,-2.526 -0.648,-3.4586 -2.093,-3.8895 -2.328,-0.6942 -3.024,-1.7357 -3.222,-4.8254 -0.151,-2.3557 -0.319,-2.7371 -2.24,-5.0888 -1.256,-1.536 -1.256,-1.5394 -1.137,-6.5048 0.08,-3.4697 -0.309,-5.6483 -1.209,-6.7178 -0.359,-0.4269 -0.839,-1.3209 -1.065,-1.9866 -0.227,-0.6657 -0.627,-1.3252 -0.89,-1.4656 -0.668,-0.3575 -2.304,-2.6473 -2.527,-3.5369 -0.103,-0.4076 -0.83,-1.4751 -1.616,-2.3722 -0.806,-0.9198 -1.627,-2.1935 -1.884,-2.9207 -0.33,-0.9366 -0.897,-1.6969 -2.072,-2.7781 -2.36,-2.1715 -2.901,-3.0903 -3.162,-5.3755 -0.122,-1.0636 -0.192,-2.1125 -0.156,-2.3308 0.04,-0.2183 0.164,-1.7066 0.285,-3.3073 0.183,-2.4377 0.343,-3.1447 0.98,-4.3533 0.741,-1.4055 0.763,-1.5627 0.848,-6.0854 0.06,-3.3185 0.186,-4.7557 0.431,-5.0394 0.937,-1.0819 1.307,-2.2871 1.302,-4.2334 0,-2.1136 -0.111,-2.4221 -1.952,-5.6885 -0.574,-1.0186 -1.387,-2.5665 -1.805,-3.4396 -0.418,-0.8731 -0.947,-1.7422 -1.175,-1.9313 -0.228,-0.1891 -0.554,-0.9274 -0.725,-1.6406 -0.171,-0.7131 -0.479,-1.4362 -0.685,-1.6067 -0.414,-0.3439 -0.506,-1.0391 -0.138,-1.0391 0.37,0 1.001,-1.8349 1.204,-3.5015 0.102,-0.8345 0.308,-1.5933 0.459,-1.6863 0.15,-0.093 0.496,-0.6605 0.769,-1.261 0.442,-0.9722 0.497,-1.8118 0.502,-7.6664 0,-7.7039 0,-7.6487 2.571,-9.7476 0.949,-0.7727 2.1,-1.7171 2.557,-2.0988 0.457,-0.3816 1.218,-0.778 1.691,-0.881 0.475,-0.1034 1.423,-0.7201 2.117,-1.3779 1.829,-1.7341 2.147,-1.9017 4.138,-2.1837 1.145,-0.1621 2.159,-0.4937 2.77,-0.905 0.795,-0.5361 1.38,-0.6708 3.361,-0.7736 2.047,-0.1061 2.558,-0.2299 3.487,-0.8445 0.599,-0.396 1.603,-0.7768 2.232,-0.8461 2.049,-0.226 2.269,-0.3365 4.098,-2.0637 2.8,-2.6436 3.853,-3.118 7.353,-3.3134 2.531,-0.1413 3.084,-0.2589 4.135,-0.8792 l 1.214,-0.7161 h 13.144 13.144 l 1.422,0.8028 c 0.813,0.4587 2.011,0.8725 2.795,0.9653 0.754,0.089 1.512,0.2937 1.683,0.454 1.12,1.0482 1.293,1.0845 5.847,1.2251 4.388,0.1356 4.56,0.1621 5.45,0.8393 0.505,0.3847 1.237,0.7789 1.627,0.8761 0.389,0.097 0.909,0.3996 1.156,0.6721 0.732,0.8089 1.899,1.0353 5.858,1.1366 3.721,0.095 3.766,0.1037 5.108,0.9649 1.316,0.8444 1.413,0.8646 3.495,0.7219 1.629,-0.1117 2.306,-0.2796 2.83,-0.702 0.378,-0.3054 0.986,-0.6855 1.35,-0.8446 0.363,-0.1591 1.495,-0.688 2.513,-1.1752 l 1.852,-0.8859 10.584,0.1542 c 11.702,0.1705 14.162,0.01 16.838,-1.1193 1.587,-0.668 1.845,-0.6969 5.397,-0.6051 3.601,0.093 3.76,0.1212 4.58,0.8111 0.467,0.3931 1.27,0.7937 1.784,0.8901 0.715,0.1342 8.911,0.025 14.263,-0.1897 0.291,-0.012 1.393,0.068 2.448,0.1778 l 1.919,0.199 2.417,2.2767 c 1.484,1.3973 2.593,2.6855 2.873,3.335 0.25,0.5821 0.769,1.5214 1.154,2.0874 0.867,1.2774 0.884,2.3119 0.06,3.7166 -0.351,0.5984 -0.822,1.7929 -1.047,2.6545 -0.225,0.8615 -0.665,1.9132 -0.979,2.3371 -0.516,0.6989 -0.552,0.9732 -0.388,2.9471 l 0.181,2.1765 -1.504,1.5412 c -2.364,2.4211 -2.503,2.747 -2.504,5.8979 0,2.3727 0.08,2.8863 0.655,4.0151 0.361,0.7119 0.784,1.8658 0.941,2.5642 0.156,0.6984 0.635,1.7993 1.064,2.4464 0.686,1.0356 0.779,1.4103 0.779,3.1287 0,1.9614 -0.348,3.0784 -1.171,3.7619 -0.227,0.1882 -0.545,0.8344 -0.706,1.4359 -0.162,0.6015 -0.639,1.5636 -1.061,2.138 -0.421,0.5743 -0.766,1.2423 -0.766,1.4844 0,0.2421 -0.326,0.9032 -0.725,1.4692 -0.683,0.9708 -0.727,1.2092 -0.772,4.2041 -0.03,1.7463 -0.06,3.6966 -0.07,4.3342 -0.02,1.102 -0.138,1.2724 -2.393,3.4609 -1.303,1.266 -2.509,2.6494 -2.679,3.0742 -0.19,0.4755 -0.3,2.2346 -0.284,4.5769 0.01,2.0925 -0.08,4.0096 -0.219,4.2602 -0.134,0.2505 -1.141,0.8928 -2.237,1.4272 -2.056,1.0027 -2.543,1.5486 -2.913,3.2654 -0.209,0.9744 -1.995,2.4562 -2.96,2.4562 -0.327,0 -0.929,0.2874 -1.337,0.6386 -0.732,0.6298 -0.742,0.6795 -0.742,3.638 0,2.8463 0.04,3.052 0.727,4.0286 0.4,0.566 0.728,1.2249 0.728,1.4641 0,0.2393 0.416,1.0819 0.926,1.8724 0.509,0.7906 0.926,1.6817 0.926,1.9803 0,0.5335 1.678,2.7968 2.652,3.576 0.609,0.4875 1.052,1.6199 1.052,2.6892 0,1.1332 0.637,2.3405 2.14,4.0584 1.148,1.3115 1.302,1.6304 1.319,2.7266 0.01,0.6828 0.02,6.242 0.02,12.3539 0,11.4098 -0.04,11.9434 -1.079,13.2634 -0.286,0.3633 -0.577,1.3098 -0.683,2.2195 -0.123,1.0642 -0.413,1.9119 -0.879,2.5765 -0.666,0.9488 -0.701,1.1764 -0.834,5.4003 -0.127,4.0388 -0.188,4.4774 -0.734,5.2148 -0.687,0.9291 -0.77,1.9396 -0.198,2.414 0.556,0.4612 0.492,1.8244 -0.132,2.8489 -0.318,0.521 -0.62,1.6886 -0.759,2.9382 -0.158,1.4121 -0.446,2.4446 -0.902,3.2365 -0.368,0.6396 -0.753,1.6785 -0.854,2.3088 -0.133,0.8232 -0.512,1.5145 -1.347,2.4549 -1.934,2.1771 -1.995,2.3281 -1.929,4.7757 0.03,1.2137 -0.03,3.4858 -0.149,5.0489 -0.181,2.4612 -0.309,3 -0.956,4.0209 -0.502,0.7917 -0.808,1.7099 -0.931,2.7964 -0.119,1.0546 -0.412,1.9555 -0.841,2.5882 -0.425,0.6253 -0.733,1.5627 -0.866,2.6351 -0.202,1.6341 -0.247,1.7074 -2.448,4.0203 -2.234,2.3482 -4.008,4.0172 -4.193,3.9459 -0.05,-0.021 -0.871,-0.1309 -1.817,-0.245 z"
       id="path994"
       transform="matrix(0.93547709,-0.47448311,0.47448311,0.93547709,-13622.875,3981.3309)" />
  </g>
</svg>
